<svg width="60" height="60" viewBox="0 0 60 60" fill="none" xmlns="http://www.w3.org/2000/svg">
<path d="M29.9998 0C13.4324 0 0 13.4326 0 30C0 40.2043 5.09692 49.2175 12.8826 54.6372C14.4023 49.344 18.2473 45.3589 23.4785 43.5432C23.6733 43.4757 23.8692 43.4115 24.0662 43.3506C24.1221 43.3333 24.1777 43.3149 24.2341 43.2979C24.7459 43.1447 25.2639 43.0129 25.7866 42.9028C25.8572 42.8879 25.9287 42.8748 25.9998 42.8606C26.4716 42.766 26.9468 42.6889 27.4243 42.6294C27.5051 42.6191 27.5854 42.6079 27.6665 42.5986C27.9409 42.5667 28.216 42.5401 28.4915 42.519H29.5781C29.6819 42.5261 29.7925 42.5261 29.9033 42.519H30.0002C22.3555 42.519 16.1333 36.4446 15.8875 28.8596C15.8789 28.8542 15.8704 28.8499 15.8618 28.8445C15.3757 19.7563 23.5837 14.1694 29.5371 14.2817C29.6912 14.2766 29.845 14.27 30.0002 14.27C30.1477 14.27 30.2935 14.2766 30.4395 14.281C32.1616 14.2517 34.0686 14.696 35.9011 15.562C37.1186 16.1232 38.25 16.8548 39.2612 17.7349C42.2266 20.2588 44.3804 24.0664 44.1248 28.8442L44.1133 28.8511C43.8718 36.4402 37.6482 42.519 30.0002 42.519L31.5227 42.5188C31.7978 42.5399 32.0724 42.5664 32.3464 42.5984C32.4285 42.6077 32.5093 42.6189 32.5908 42.6294C32.8722 42.6641 33.1527 42.7054 33.4321 42.7532C33.6255 42.7859 33.8171 42.8215 34.0076 42.8596C34.0811 42.8743 34.1548 42.8877 34.2275 42.9033C34.748 43.013 35.2636 43.1442 35.7732 43.2966C35.8337 43.3149 35.8936 43.3345 35.9541 43.3533C36.1465 43.4131 36.3372 43.4753 36.5261 43.541C41.7556 45.3552 45.6021 49.3391 47.1265 54.6311C54.907 49.2109 60 40.2007 60 30C60 13.4326 46.5674 0 29.9998 0Z" fill="#F08E83"/>
<path d="M44.1133 28.8511C40.3777 31.1826 30.5818 27.8103 27.6711 22.6699C24.9568 27.4314 20.3577 31.6489 15.8875 28.8596C16.1333 36.4446 22.3555 42.519 30.0002 42.519C37.6482 42.519 43.8718 36.4402 44.1133 28.8511ZM35.9011 15.562C37.1116 16.1358 38.2413 16.8664 39.2612 17.7349C38.25 16.8548 37.1186 16.1232 35.9011 15.562ZM30.4395 14.281C30.2935 14.2766 30.1477 14.27 30.0002 14.27C29.845 14.27 29.6912 14.2766 29.5371 14.2817C29.6855 14.2847 29.8337 14.2878 29.9795 14.2979C30.1304 14.2874 30.2849 14.2834 30.4395 14.281Z" fill="#FCE9EA"/>
<path d="M36.5261 43.541L36.6511 43.5854C36.4916 44.0381 36.2859 44.4732 36.0374 44.8838C37.042 46.4309 36.7898 53.177 35.28 52.1108L32.6365 50.2561L29.9998 48.4014L30.1726 48.2795C30.115 48.281 30.0576 48.2839 29.9998 48.2839C29.9395 48.2839 29.8799 48.2808 29.8198 48.2793L29.9927 48.4014L27.356 50.2561L24.7124 52.1108C23.1941 53.179 22.9426 46.408 23.9575 44.8762C23.7116 44.4688 23.5078 44.0374 23.3494 43.5886C23.3923 43.5732 23.4355 43.5581 23.4785 43.5432C18.2473 45.3589 14.4023 49.344 12.8826 54.6372C17.7373 58.0168 23.6362 60 29.9995 60C36.3667 60 42.2698 58.0144 47.1265 54.6311C45.6021 49.3391 41.7556 45.3552 36.5261 43.541Z" fill="#CFE07D"/>
<path d="M23.9575 44.8762C24.1592 44.5718 24.4109 44.4731 24.7126 44.6853L27.3562 46.54L29.8198 48.2793C29.8799 48.2808 29.9395 48.2839 29.9998 48.2839C30.0576 48.2839 30.115 48.281 30.1726 48.2795L32.6367 46.54L35.2803 44.6853C35.5835 44.4712 35.8352 44.5732 36.0374 44.8838C36.2859 44.4732 36.4916 44.0381 36.6511 43.5854L36.5261 43.541C36.3372 43.4753 36.1465 43.4131 35.9541 43.3533C35.8936 43.3345 35.8337 43.3149 35.7732 43.2966C35.2636 43.1442 34.748 43.013 34.2275 42.9033C34.1548 42.8877 34.0811 42.8743 34.0076 42.8596C33.7285 42.8039 33.4484 42.754 33.1672 42.71C32.9755 42.6804 32.7833 42.6536 32.5908 42.6294C32.5093 42.6189 32.4285 42.6077 32.3464 42.5984C32.0724 42.5664 31.7978 42.5399 31.5227 42.5188L29.9033 42.519C29.7925 42.5261 29.6819 42.5261 29.5781 42.519H28.4915C28.216 42.5401 27.9409 42.5667 27.6665 42.5986C27.5854 42.6079 27.5051 42.6191 27.4243 42.6294C27.143 42.6646 26.8624 42.7056 26.5828 42.7527C26.387 42.7859 26.1926 42.822 25.9998 42.8606C25.9287 42.8748 25.8572 42.8879 25.7866 42.9028C25.2639 43.0129 24.7459 43.1447 24.2341 43.2979C24.1777 43.3149 24.1221 43.3333 24.0662 43.3506C23.8258 43.425 23.5865 43.5044 23.3494 43.5886C23.5078 44.0374 23.7116 44.4688 23.9575 44.8762Z" fill="#FEFEFE"/>
<path d="M35.2803 44.6853L32.6367 46.54L30.1726 48.2795L29.9998 48.4014L32.6365 50.2561L35.28 52.1108C36.7898 53.177 37.042 46.4309 36.0374 44.8838C35.8352 44.5732 35.5835 44.4712 35.2803 44.6853ZM24.7126 44.6853C24.4109 44.4731 24.1592 44.5718 23.9575 44.8762C22.9426 46.408 23.1941 53.179 24.7124 52.1108L27.356 50.2561L29.9927 48.4014L29.8198 48.2793L27.3562 46.54L24.7126 44.6853Z" fill="#7EA701"/>
<path d="M27.6711 22.6699C30.5818 27.8103 40.3777 31.1826 44.1133 28.8511L44.1248 28.8442C44.3804 24.0664 42.2266 20.2588 39.2612 17.7349C38.2413 16.8664 37.1116 16.1358 35.9011 15.562C34.0686 14.696 32.1616 14.2517 30.4395 14.281C30.2849 14.2834 30.1304 14.2874 29.9795 14.2979C30.4683 16.0283 29.4946 19.4714 27.6711 22.6699Z" fill="#F7B970"/>
<path d="M27.6711 22.6699C29.4946 19.4714 30.4683 16.0283 29.9795 14.2979C29.8321 14.2889 29.6848 14.2835 29.5371 14.2817C23.5837 14.1694 15.3757 19.7563 15.8618 28.8445C15.8704 28.8499 15.8789 28.8542 15.8875 28.8596C20.3577 31.6489 24.9568 27.4314 27.6711 22.6699Z" fill="#FBCE77"/>
</svg>
