<svg width="59" height="58" viewBox="0 0 59 58" fill="none" xmlns="http://www.w3.org/2000/svg">
<path d="M58.672 15.6692C58.333 15.1753 57.7807 14.8798 57.1919 14.8798H18.5061L15.5768 4.51644C14.4284 0.434717 11.6997 -0.00488281 10.5805 -0.00488281H2.77149C1.77076 -0.00488281 0.961426 0.82755 0.961426 1.85266C0.961426 2.87777 1.77258 3.7102 2.77149 3.7102H10.5786C10.8265 3.7102 11.5794 3.7102 12.0934 5.5322L22.1682 43.5267C22.3869 44.3273 23.0996 44.881 23.9108 44.881H48.5171C49.2808 44.881 49.9626 44.3909 50.2196 43.652L58.8926 17.364C59.0931 16.7953 59.0093 16.1611 58.6702 15.6673L58.672 15.6692ZM47.2447 41.1678H25.287L19.5251 18.5967H54.6199L47.2447 41.1678ZM43.6538 48.6466C41.1365 48.6466 39.0967 50.7398 39.0967 53.3232C39.0967 55.9065 41.1365 57.9998 43.6538 57.9998C46.1711 57.9998 48.2108 55.9065 48.2108 53.3232C48.2108 50.7398 46.1711 48.6466 43.6538 48.6466ZM27.2484 48.6466C24.7311 48.6466 22.6913 50.7398 22.6913 53.3232C22.6913 55.9065 24.7311 57.9998 27.2484 57.9998C29.7657 57.9998 31.8054 55.9065 31.8054 53.3232C31.8054 50.7398 29.7657 48.6466 27.2484 48.6466Z" fill="white"/>
</svg>
