<svg width="137" height="116" viewBox="0 0 137 116" fill="none" xmlns="http://www.w3.org/2000/svg">
<path d="M34.729 99.51C31.2892 97.7141 28.5252 95.2153 26.7354 92.2837L26.3632 91.6743C23.2515 86.577 23.262 80.5747 26.3915 75.2066L57.5359 21.7838C60.6253 16.4848 66.4267 12.3915 73.4532 10.5538C80.8163 8.62831 88.5891 9.37696 94.7786 12.6086C97.7386 14.154 100.143 16.1656 101.925 18.5879L113.438 34.235C118.636 41.3002 117.313 50.4227 110.147 56.9347L67.8891 95.3336C62.4742 100.255 54.4544 102.959 46.4359 102.569C42.2168 102.364 38.1687 101.306 34.729 99.51ZM85.8318 22.6492C83.4226 21.3913 80.3984 21.0996 77.5342 21.8487C74.8014 22.5633 72.545 24.1554 71.3435 26.2163L40.1991 79.6391C38.9818 81.7268 38.9779 84.0612 40.1881 86.0438L40.5599 86.653C41.257 87.7952 42.3343 88.7694 43.6753 89.4696C45.0161 90.1697 46.5944 90.5819 48.2387 90.6619C51.3569 90.8136 54.4759 89.7618 56.5817 87.8479L98.8397 49.4487C101.627 46.916 102.142 43.3681 100.12 40.6204L88.6067 24.9734C87.9137 24.0305 86.9796 23.2485 85.8318 22.6492Z" fill="#FFCB44"/>
<path d="M68.9801 15.5741C76.343 13.6487 84.1157 14.3974 90.3053 17.629C93.2652 19.1744 95.6695 21.186 97.4518 23.6083L108.965 39.2553C113.105 44.8825 113.104 51.8136 109.313 57.6926L110.147 56.935C117.314 50.4226 118.636 41.3004 113.438 34.2352L101.926 18.5882C100.143 16.1658 97.7386 14.1541 94.7789 12.6088C88.5893 9.37715 80.8167 8.62833 73.4538 10.5539C66.7234 12.3142 61.1186 16.1444 57.943 21.1212C60.9612 18.6071 64.7479 16.6809 68.9801 15.5741Z" fill="#FFCB44"/>
<path d="M84.666 62.3282L61.6939 83.2027C58.8707 85.768 59.1138 89.523 62.2359 91.5904C65.3582 93.6575 70.1776 93.2538 73.0004 90.6887L95.9834 69.8045L84.666 62.3282Z" fill="#FFCB44"/>
<path opacity="0.1" d="M74.9688 71.1402L86.4077 78.5062L95.983 69.8051L84.6661 62.3285L74.9688 71.1402Z" fill="black"/>
<path d="M92.5628 75.8562L112.203 58.0088L96.7833 48.3751L77.3332 66.0491L92.5628 75.8562Z" fill="#FFCB44"/>
<path d="M65.9618 88.549C67.2425 89.2177 69.0334 88.915 69.9618 87.873C70.8903 86.831 70.6048 85.4443 69.3241 84.7756C68.0434 84.107 66.2525 84.4096 65.3241 85.4516C64.3956 86.4936 64.6811 87.8804 65.9618 88.549Z" fill="black"/>
<path d="M115.101 33.4362L103.589 17.7891C101.67 15.1819 99.0819 13.0164 95.896 11.353C89.234 7.87472 80.8679 7.06869 72.9424 9.1414C65.3791 11.1193 59.1342 15.5253 55.8091 21.2292L24.6645 74.6519C23.6533 76.3862 22.9341 78.2064 22.5261 80.0617C22.3978 80.6465 22.7156 81.1908 23.2861 81.4887C23.5141 81.6077 23.7822 81.6872 24.078 81.714C25.1148 81.8086 26.1012 81.2219 26.2811 80.4037C26.6311 78.8113 27.2486 77.2488 28.1165 75.76L59.2613 22.3372C62.1145 17.4428 67.473 13.6622 73.9627 11.9651C80.7635 10.1866 87.9426 10.8784 93.6593 13.8632C96.3925 15.2902 98.6133 17.1481 100.259 19.3857L111.772 35.0327C116.225 41.086 115.485 48.8123 110.042 54.6984L108.972 54.0303L101.327 49.2541C103.691 46.3571 103.915 42.718 101.784 39.822L98.2201 34.9785C97.7085 34.283 96.5481 34.0762 95.6285 34.517C94.7088 34.9578 94.3784 35.8791 94.8906 36.5749L98.4544 41.4184C99.8056 43.2551 99.7424 45.5355 98.3952 47.4222L98.0216 47.1888C97.2377 46.6987 96.0613 46.8097 95.3688 47.4388C95.3688 47.4388 75.9231 65.109 75.9191 65.1128C75.215 65.7526 75.2862 66.7149 76.0731 67.2217L76.5199 67.5096C76.5199 67.5096 60.2792 82.2673 60.2753 82.2707L55.168 86.9117C53.4757 88.4496 50.9693 89.2951 48.4636 89.1728C47.1404 89.1085 45.8715 88.7768 44.7932 88.2138C41.6628 86.5794 40.2466 83.0303 41.9241 80.1925L73.0687 26.7698C74.0344 25.1135 75.8474 23.8344 78.0434 23.2601C80.3447 22.6579 82.7756 22.8928 84.7121 23.9038C85.6334 24.3849 86.3834 25.0132 86.9412 25.7711L90.9717 31.2493C91.4834 31.9454 92.6438 32.1519 93.5634 31.7108C94.483 31.27 94.8134 30.3487 94.3012 29.6529L90.2707 24.1747C89.4407 23.0469 88.3228 22.111 86.9486 21.3936C84.0668 19.889 80.4491 19.5402 77.0225 20.4363C73.7531 21.2913 71.0532 23.1958 69.6161 25.6616C69.6161 25.6616 38.479 79.0716 38.4715 79.0843C36.298 82.8125 37.6773 87.4116 41.3488 89.9908C41.7277 90.257 42.1314 90.5023 42.5559 90.7239C44.159 91.5609 46.0458 92.054 48.0124 92.1496C51.7432 92.3314 55.4749 91.0728 57.9977 88.7801C57.9985 88.7834 57.9998 88.7869 58.0005 88.7904C58.0054 88.8099 58.0115 88.8293 58.0168 88.8489C58.0395 88.9358 58.0641 89.0222 58.0909 89.1084C58.5085 90.4448 59.4279 91.6583 60.7027 92.5753C61.1041 92.8642 61.5406 93.1174 62.0028 93.3451C63.3278 93.9902 64.8742 94.3578 66.4699 94.4019C61.4687 98.944 54.0638 101.441 46.6604 101.08C42.7632 100.891 39.0236 99.9133 35.8463 98.2544C30.6696 95.5516 27.0668 90.8866 26.1711 85.9906C26.0232 85.1832 25.0588 84.6595 24.0169 84.8214C22.9751 84.9831 22.25 85.7688 22.3982 86.5766C23.4366 92.2532 27.6116 97.6327 33.61 100.765C37.312 102.697 41.6689 103.836 46.2099 104.057C54.8407 104.477 63.4733 101.565 69.3016 96.269L74.405 91.6316C74.4073 91.6293 74.4099 91.6271 74.4131 91.6242L90.8184 76.7169L91.3025 77.0287C91.3487 77.0586 91.3963 77.0861 91.4452 77.1116C92.2239 77.5182 93.3172 77.3893 93.975 76.7914L102.017 69.4837C102.723 68.8424 102.662 67.9036 101.882 67.3867C101.101 66.8681 99.8961 66.9709 99.1903 67.6119L92.4097 73.7731L80.0398 65.8075L96.9513 50.4401C96.9513 50.4401 97.4609 50.7583 97.4616 50.7589C97.4616 50.7589 109.041 57.9928 109.041 57.9931L109.476 58.2646L104.331 62.94C103.625 63.5813 103.686 64.5199 104.467 65.0369C105.246 65.5529 106.452 65.4526 107.158 64.8114C107.158 64.8114 113.602 58.9554 113.615 58.9435C114.639 58.0131 113.89 57.1024 112.938 56.5076C119.413 49.6298 120.33 40.544 115.101 33.4362ZM79.3795 69.351L87.9583 74.8755L71.5859 89.753C70.0429 91.1553 67.577 91.7263 65.4164 91.2275C64.8101 91.0874 64.2385 90.8668 63.74 90.5713C62.6668 89.9355 61.94 88.9914 61.7125 87.9341C61.4287 86.6161 61.9485 85.1905 63.1063 84.1379L79.3795 69.351Z" fill="black"/>
</svg>
