<svg width="33" height="35" viewBox="0 0 33 35" fill="none" xmlns="http://www.w3.org/2000/svg">
<path d="M24.707 21.556V24.0397C24.707 24.7993 24.4456 25.4753 23.9229 26.0677C23.4001 26.6602 22.7269 27.1197 21.9033 27.4463C21.0798 27.7729 20.2347 28.0197 19.3682 28.1868C18.5016 28.354 17.6602 28.4375 16.8438 28.4375C13.9076 28.4375 11.4548 27.3817 9.48536 25.2702C7.51595 23.1586 6.53125 20.5306 6.53125 17.3861C6.53125 14.3023 7.50521 11.7274 9.45312 9.66146C11.401 7.59549 13.8288 6.56251 16.7363 6.56251C17.2233 6.56251 17.764 6.59669 18.3584 6.66506C18.9528 6.73342 19.6188 6.87014 20.3564 7.07521C21.0941 7.28029 21.7565 7.53854 22.3438 7.84995C22.931 8.16137 23.4251 8.59051 23.8262 9.13739C24.2272 9.68426 24.4277 10.2995 24.4277 10.9831V13.4668C24.4277 13.7099 24.3131 13.8314 24.084 13.8314H21.5488C21.3197 13.8314 21.2051 13.7099 21.2051 13.4668V11.8718C21.2051 11.2186 20.736 10.7059 19.7979 10.3337C18.8597 9.9615 17.875 9.77541 16.8438 9.77541C14.8385 9.77541 13.2021 10.4704 11.9346 11.8604C10.667 13.2503 10.0332 15.0543 10.0332 17.2722C10.0332 19.566 10.6885 21.4611 11.999 22.9574C13.3096 24.4537 14.9818 25.2018 17.0156 25.2018C17.9896 25.2018 18.9779 25.0195 19.9805 24.655C20.9831 24.2904 21.4844 23.7891 21.4844 23.1511V21.556C21.4844 21.4497 21.5166 21.3623 21.5812 21.294C21.6457 21.2256 21.7209 21.1914 21.8067 21.1914H24.3633C24.4493 21.1914 24.528 21.2256 24.5995 21.294C24.6712 21.3623 24.707 21.4497 24.707 21.556ZM16.5 2.91667C14.638 2.91667 12.8584 3.30404 11.1611 4.07877C9.46386 4.85352 8.00292 5.8903 6.77831 7.18913C5.55372 8.48796 4.57618 10.0374 3.84571 11.8376C3.11524 13.6377 2.75 15.5252 2.75 17.5C2.75 19.4748 3.11524 21.3623 3.84571 23.1624C4.57618 24.9626 5.55372 26.512 6.77831 27.8109C8.00292 29.1097 9.46386 30.1465 11.1611 30.9212C12.8584 31.696 14.638 32.0833 16.5 32.0833C18.362 32.0833 20.1416 31.696 21.8389 30.9212C23.5361 30.1465 24.9971 29.1097 26.2217 27.8109C27.4463 26.512 28.4238 24.9626 29.1543 23.1624C29.8848 21.3623 30.25 19.4748 30.25 17.5C30.25 15.5252 29.8848 13.6377 29.1543 11.8376C28.4238 10.0374 27.4463 8.48796 26.2217 7.18913C24.9971 5.8903 23.5361 4.85352 21.8389 4.07877C20.1416 3.30404 18.362 2.91667 16.5 2.91667ZM33 17.5C33 20.6749 32.2624 23.603 30.7871 26.2842C29.3118 28.9654 27.3102 31.0883 24.7822 32.653C22.2542 34.2177 19.4935 35 16.5 35C13.5065 35 10.7458 34.2177 8.21777 32.653C5.68979 31.0883 3.68816 28.9654 2.21289 26.2842C0.737631 23.603 0 20.6749 0 17.5C0 14.3251 0.737631 11.397 2.21289 8.71582C3.68816 6.03461 5.68979 3.91168 8.21777 2.34701C10.7458 0.782336 13.5065 0 16.5 0C19.4935 0 22.2542 0.782336 24.7822 2.34701C27.3102 3.91168 29.3118 6.03461 30.7871 8.71582C32.2624 11.397 33 14.3251 33 17.5Z" fill="white"/>
</svg>
