<svg width="45" height="40" viewBox="0 0 45 40" fill="none" xmlns="http://www.w3.org/2000/svg">
<path fill-rule="evenodd" clip-rule="evenodd" d="M21.7677 0.732225C22.744 1.70855 22.744 3.29145 21.7677 4.26777L8.53552 17.5H42.5C43.8807 17.5 45 18.6192 45 20C45 21.3808 43.8807 22.5 42.5 22.5H8.53552L21.7677 35.7323C22.744 36.7085 22.744 38.2915 21.7677 39.2677C20.7915 40.244 19.2085 40.244 18.2323 39.2677L0.732225 21.7677C0.2634 21.299 0 20.663 0 20C0 19.337 0.2634 18.701 0.732225 18.2323L18.2323 0.732225C19.2085 -0.244075 20.7915 -0.244075 21.7677 0.732225Z" fill="white"/>
</svg>
