<svg width="62" height="50" viewBox="0 0 62 50" fill="none" xmlns="http://www.w3.org/2000/svg">
<path d="M16.95 1.01998C12.48 1.23404 8.22 3.23989 5.31 6.35294C2.4 9.45307 1 13.5423 1 17.6278C1 21.204 2.394 24.6695 4.292 27.7032C6.192 30.7369 8.672 33.3813 11.292 35.8115C16.94 41.0393 23.452 45.4662 30.536 48.8948C30.826 49.0351 31.176 49.0351 31.464 48.8948C38.55 45.4662 45.06 41.0393 50.708 35.8115C53.328 33.3813 55.808 30.7369 57.708 27.7051C59.608 24.6714 61 21.2077 61 17.6278C61 13.5312 59.6 9.45676 56.692 6.35294C53.78 3.23805 49.52 1.23219 45.052 1.01998C42.02 0.876046 38.962 1.54774 36.328 2.93911C34.134 4.09427 32.378 5.81411 31 7.76276C29.62 5.81411 27.866 4.09427 25.672 2.93726C23.04 1.54589 19.978 0.872355 16.95 1.01998ZM17.05 2.86529C19.69 2.73981 22.38 3.32662 24.676 4.53715C26.972 5.74768 28.89 7.58561 30.116 9.74832C30.488 10.4126 31.512 10.4126 31.886 9.74832C33.11 7.58561 35.026 5.74768 37.326 4.53715C39.62 3.32662 42.306 2.73981 44.95 2.86529C48.834 3.04983 52.624 4.82502 55.18 7.55239C57.74 10.289 59 13.9372 59 17.6278C59 20.8202 57.744 23.9572 55.976 26.7806C54.206 29.6131 51.848 32.1394 49.292 34.5051C43.92 39.4819 37.716 43.6855 31 46.9905C24.284 43.6873 18.08 39.48 12.708 34.5051C10.152 32.1394 7.794 29.615 6.024 26.7824C4.256 23.9572 3 20.8202 3 17.6278C3 13.9372 4.26 10.2871 6.82 7.55239C9.376 4.82686 13.166 3.04983 17.05 2.86529Z" fill="white" stroke="white" stroke-width="1.5"/>
</svg>
