<svg width="64" height="52" viewBox="0 0 64 52" fill="none" xmlns="http://www.w3.org/2000/svg">
<path d="M17.95 2.01998C13.48 2.23404 9.22 4.23989 6.31 7.35294C3.4 10.4531 2 14.5423 2 18.6278C2 22.204 3.394 25.6695 5.292 28.7032C7.192 31.7369 9.672 34.3813 12.292 36.8115C17.94 42.0393 24.452 46.4662 31.536 49.8948C31.826 50.0351 32.176 50.0351 32.464 49.8948C39.55 46.4662 46.06 42.0393 51.708 36.8115C54.328 34.3813 56.808 31.7369 58.708 28.7051C60.608 25.6714 62 22.2077 62 18.6278C62 14.5312 60.6 10.4568 57.692 7.35294C54.78 4.23805 50.52 2.23219 46.052 2.01998C43.02 1.87605 39.962 2.54774 37.328 3.93911C35.134 5.09427 33.378 6.81411 32 8.76276C30.62 6.81411 28.866 5.09427 26.672 3.93726C24.04 2.54589 20.978 1.87236 17.95 2.01998ZM18.05 3.86529C20.69 3.73981 23.38 4.32662 25.676 5.53715C27.972 6.74768 29.89 8.58561 31.116 10.7483C31.488 11.4126 32.512 11.4126 32.886 10.7483C34.11 8.58561 36.026 6.74768 38.326 5.53715C40.62 4.32662 43.306 3.73981 45.95 3.86529C49.834 4.04983 53.624 5.82502 56.18 8.55239C58.74 11.289 60 14.9372 60 18.6278C60 21.8202 58.744 24.9572 56.976 27.7806C55.206 30.6131 52.848 33.1394 50.292 35.5051C44.92 40.4819 38.716 44.6855 32 47.9905C25.284 44.6873 19.08 40.48 13.708 35.5051C11.152 33.1394 8.794 30.615 7.024 27.7824C5.256 24.9572 4 21.8202 4 18.6278C4 14.9372 5.26 11.2871 7.82 8.55239C10.376 5.82686 14.166 4.04983 18.05 3.86529Z" fill="#FAB400" stroke="#FAB400" stroke-width="3"/>
</svg>
