<svg width="64" height="52" viewBox="0 0 64 52" fill="none" xmlns="http://www.w3.org/2000/svg">
<path d="M4.5 10.5L13.5 3.5L18.5 3H21.5L26.5 5L30 8L32 10.5L35.5 6L42.5 3H49L56 6.5L61 16L60 24L56 31L49 38.5L42 43.5L32 49L22 43L12 36L4.5 25.5L3 17.5L4.5 10.5Z" fill="#FF0000"/>
<path d="M4.65637 29.1013L4.65618 29.101C2.71591 25.9998 1.25 22.3953 1.25 18.6278C1.25 14.3751 2.7074 10.0954 5.76267 6.84017C8.80668 3.5841 13.2503 1.49426 17.9138 1.27085C21.0736 1.11686 24.2695 1.81886 27.0225 3.27421C29.0245 4.33012 30.6671 5.8222 31.9997 7.51018C33.3317 5.82185 34.976 4.32995 36.9781 3.27571L4.65637 29.1013ZM4.65637 29.1013C6.60617 32.2145 9.13952 34.9103 11.782 37.3614L11.7825 37.3619M4.65637 29.1013L11.7825 37.3619M11.7825 37.3619C17.4862 42.6412 24.0601 47.1098 31.2093 50.5699L31.2095 50.57M11.7825 37.3619L31.2095 50.57M31.2095 50.57C31.7045 50.8094 32.295 50.8106 32.7907 50.5699C39.942 47.1098 46.5138 42.6412 52.2175 37.3619L52.218 37.3614M31.2095 50.57L52.218 37.3614M52.218 37.3614C54.8605 34.9103 57.3938 32.2146 59.3435 29.1033L59.3436 29.1032M52.218 37.3614L59.3436 29.1032M59.3436 29.1032C61.2862 26.0014 62.75 22.3988 62.75 18.6278C62.75 14.3635 61.2923 10.0991 58.2399 6.84075C55.1939 3.58252 50.7498 1.49226 46.0876 1.27082L46.052 2.01995M59.3436 29.1032L46.052 2.01995M46.052 2.01995L46.0876 1.27082C42.9248 1.12068 39.7336 1.82041 36.9786 3.27547L46.052 2.01995ZM18.0856 4.61445L18.0856 4.61445C14.396 4.78974 10.7899 6.48223 8.36754 9.06494L18.0856 4.61445ZM18.0856 4.61445C20.5952 4.49516 23.1517 5.05413 25.3262 6.20059C27.5005 7.34695 29.3105 9.0849 30.4626 11.1166C31.1224 12.2916 32.8791 12.288 33.5391 11.117C34.6892 9.0852 36.4972 7.34722 38.6753 6.20084L38.676 6.20046M18.0856 4.61445L38.676 6.20046M38.676 6.20046C40.8484 5.05412 43.4008 4.49515 45.9144 4.61445C49.6044 4.78976 53.2106 6.48075 55.6328 9.06525C58.0471 11.6464 59.25 15.1039 59.25 18.6278C59.25 21.6274 58.0671 24.625 56.3403 27.3825L56.34 27.3831M38.676 6.20046L56.34 27.3831M56.34 27.3831C54.6201 30.1355 52.3159 32.6099 49.7826 34.9546L49.7823 34.9549M56.34 27.3831L49.7823 34.9549M49.7823 34.9549C44.5549 39.7977 38.5273 43.9043 31.9999 47.1537C25.4728 43.906 19.4452 39.796 14.2176 34.9548L14.2174 34.9546M49.7823 34.9549L14.2174 34.9546M14.2174 34.9546C11.684 32.6098 9.37986 30.1372 7.66003 27.385L7.65977 27.3845M14.2174 34.9546L7.65977 27.3845M7.65977 27.3845C5.93285 24.625 4.75 21.6274 4.75 18.6278M7.65977 27.3845L4.75 18.6278M4.75 18.6278C4.75 15.1036 5.95311 11.6442 8.36745 9.06504L4.75 18.6278Z" fill="#FF0000" stroke="#FF0000" stroke-width="1.5"/>
</svg>
