<svg width="44" height="44" viewBox="0 0 44 44" fill="none" xmlns="http://www.w3.org/2000/svg">
<path d="M43.4838 40.8154L31.2465 28.4665C33.6413 25.4652 35.085 21.6621 35.085 17.5267C35.085 7.84691 27.2361 0 17.5425 0C7.84886 0 0 7.85837 0 17.5381C0 27.2179 7.84886 35.0648 17.5425 35.0648C21.7362 35.0648 25.5747 33.5985 28.5996 31.1471L40.7568 43.4158C41.1235 43.8053 41.6276 44 42.1203 44C42.5901 44 43.0599 43.8282 43.4151 43.4845C44.1713 42.7628 44.1942 41.5715 43.4838 40.8154ZM17.5425 31.296C13.8644 31.296 10.404 29.8641 7.80303 27.2637C5.20202 24.6634 3.76975 21.2039 3.76975 17.5381C3.76975 13.861 5.20202 10.4015 7.80303 7.81255C10.404 5.21218 13.8644 3.78027 17.5425 3.78027C21.2206 3.78027 24.6809 5.21218 27.282 7.81255C29.883 10.4129 31.3152 13.8724 31.3152 17.5381C31.3152 21.2153 29.883 24.6748 27.282 27.2637C24.6809 29.8641 21.2206 31.296 17.5425 31.296Z" fill="black"/>
</svg>
