<svg width="348" height="116" viewBox="0 0 348 116" fill="none" xmlns="http://www.w3.org/2000/svg">
<mask id="path-1-outside-1_619_494" maskUnits="userSpaceOnUse" x="127.611" y="51.8906" width="217" height="37" fill="black">
<rect fill="white" x="127.611" y="51.8906" width="217" height="37"/>
<path d="M137.891 79.8906C138.339 80.0186 138.915 80.1146 139.619 80.1786C140.323 80.2106 140.995 80.2266 141.635 80.2266C142.915 80.2266 143.971 79.9706 144.803 79.4586C145.667 78.9146 146.099 78.0826 146.099 76.9626C146.099 75.9066 145.747 75.1546 145.043 74.7066C144.339 74.2586 143.267 74.0346 141.827 74.0346H137.891V79.8906ZM137.891 68.1786H141.395C142.771 68.1786 143.763 67.9226 144.371 67.4106C145.011 66.8986 145.331 66.1466 145.331 65.1546C145.331 64.2906 144.963 63.6026 144.227 63.0906C143.523 62.5786 142.451 62.3226 141.011 62.3226C140.531 62.3226 139.971 62.3386 139.331 62.3706C138.723 62.4026 138.243 62.4506 137.891 62.5146V68.1786ZM141.011 86.6586C140.467 86.6586 139.827 86.6426 139.091 86.6106C138.355 86.5786 137.587 86.5146 136.787 86.4186C136.019 86.3226 135.251 86.1946 134.483 86.0346C133.715 85.9066 133.011 85.7146 132.371 85.4586C130.611 84.7866 129.731 83.6186 129.731 81.9546V59.5386C129.731 58.8666 129.907 58.3546 130.259 58.0026C130.643 57.6186 131.155 57.3146 131.795 57.0906C132.883 56.7066 134.243 56.4346 135.875 56.2746C137.507 56.0826 139.187 55.9866 140.915 55.9866C145.011 55.9866 148.163 56.6746 150.371 58.0506C152.579 59.4266 153.683 61.5546 153.683 64.4346C153.683 65.8746 153.267 67.1226 152.435 68.1786C151.603 69.2026 150.483 69.9546 149.075 70.4346C150.675 70.8826 152.003 71.6986 153.059 72.8826C154.147 74.0666 154.691 75.5546 154.691 77.3466C154.691 80.5146 153.507 82.8666 151.139 84.4026C148.803 85.9066 145.427 86.6586 141.011 86.6586ZM185.229 74.2266C185.229 76.2106 184.925 77.9866 184.317 79.5546C183.709 81.0906 182.845 82.3866 181.725 83.4426C180.637 84.4986 179.325 85.2986 177.789 85.8426C176.253 86.3866 174.541 86.6586 172.653 86.6586C170.765 86.6586 169.053 86.3706 167.517 85.7946C165.981 85.2186 164.653 84.4026 163.533 83.3466C162.445 82.2586 161.597 80.9466 160.989 79.4106C160.381 77.8746 160.077 76.1466 160.077 74.2266C160.077 72.3386 160.381 70.6266 160.989 69.0906C161.597 67.5546 162.445 66.2586 163.533 65.2026C164.653 64.1146 165.981 63.2826 167.517 62.7066C169.053 62.1306 170.765 61.8426 172.653 61.8426C174.541 61.8426 176.253 62.1466 177.789 62.7546C179.325 63.3306 180.637 64.1626 181.725 65.2506C182.845 66.3066 183.709 67.6026 184.317 69.1386C184.925 70.6746 185.229 72.3706 185.229 74.2266ZM168.429 74.2266C168.429 76.1786 168.797 77.6826 169.533 78.7386C170.301 79.7626 171.357 80.2746 172.701 80.2746C174.045 80.2746 175.069 79.7466 175.773 78.6906C176.509 77.6346 176.877 76.1466 176.877 74.2266C176.877 72.3066 176.509 70.8346 175.773 69.8106C175.037 68.7546 173.997 68.2266 172.653 68.2266C171.309 68.2266 170.269 68.7546 169.533 69.8106C168.797 70.8346 168.429 72.3066 168.429 74.2266ZM191.61 62.8986C191.93 62.8026 192.426 62.7066 193.098 62.6106C193.802 62.5146 194.522 62.4666 195.258 62.4666C195.962 62.4666 196.586 62.5146 197.13 62.6106C197.706 62.7066 198.186 62.8986 198.57 63.1866C198.954 63.4746 199.242 63.8746 199.434 64.3866C199.658 64.8666 199.77 65.5066 199.77 66.3066V76.6266C199.77 77.9386 200.09 78.8826 200.73 79.4586C201.37 80.0026 202.298 80.2746 203.514 80.2746C204.25 80.2746 204.842 80.2106 205.29 80.0826C205.77 79.9546 206.138 79.8266 206.394 79.6986V62.8986C206.714 62.8026 207.21 62.7066 207.882 62.6106C208.586 62.5146 209.306 62.4666 210.042 62.4666C210.746 62.4666 211.37 62.5146 211.914 62.6106C212.49 62.7066 212.97 62.8986 213.354 63.1866C213.738 63.4746 214.026 63.8746 214.218 64.3866C214.442 64.8666 214.554 65.5066 214.554 66.3066V80.8986C214.554 82.4986 213.882 83.6986 212.538 84.4986C211.418 85.2026 210.074 85.7306 208.506 86.0826C206.97 86.4666 205.29 86.6586 203.466 86.6586C201.738 86.6586 200.138 86.4666 198.666 86.0826C197.226 85.6986 195.978 85.1066 194.922 84.3066C193.866 83.5066 193.05 82.4826 192.474 81.2346C191.898 79.9546 191.61 78.4186 191.61 76.6266V62.8986ZM230.252 85.8426C229.9 85.9066 229.372 85.9866 228.668 86.0826C227.996 86.2106 227.308 86.2746 226.604 86.2746C225.9 86.2746 225.26 86.2266 224.684 86.1306C224.14 86.0346 223.676 85.8426 223.292 85.5546C222.908 85.2666 222.604 84.8826 222.38 84.4026C222.188 83.8906 222.092 83.2346 222.092 82.4346V54.5946C222.444 54.5306 222.956 54.4506 223.628 54.3546C224.332 54.2266 225.036 54.1626 225.74 54.1626C226.444 54.1626 227.068 54.2106 227.612 54.3066C228.188 54.4026 228.668 54.5946 229.052 54.8826C229.436 55.1706 229.724 55.5706 229.916 56.0826C230.14 56.5626 230.252 57.2026 230.252 58.0026V85.8426ZM236.793 74.2266C236.793 72.1146 237.113 70.2906 237.753 68.7546C238.393 67.1866 239.273 65.8906 240.393 64.8666C241.545 63.8426 242.873 63.0906 244.377 62.6106C245.913 62.0986 247.561 61.8426 249.321 61.8426C249.961 61.8426 250.585 61.9066 251.193 62.0346C251.801 62.1306 252.297 62.2586 252.681 62.4186V54.6426C253.001 54.5466 253.513 54.4506 254.217 54.3546C254.921 54.2266 255.641 54.1626 256.377 54.1626C257.081 54.1626 257.705 54.2106 258.249 54.3066C258.825 54.4026 259.305 54.5946 259.689 54.8826C260.073 55.1706 260.361 55.5706 260.553 56.0826C260.745 56.5626 260.841 57.2026 260.841 58.0026V80.7546C260.841 82.2586 260.137 83.4586 258.729 84.3546C257.801 84.9626 256.601 85.4906 255.129 85.9386C253.657 86.4186 251.961 86.6586 250.041 86.6586C247.961 86.6586 246.089 86.3706 244.425 85.7946C242.793 85.2186 241.401 84.3866 240.249 83.2986C239.129 82.2106 238.265 80.9146 237.657 79.4106C237.081 77.8746 236.793 76.1466 236.793 74.2266ZM250.425 68.2266C248.697 68.2266 247.369 68.7226 246.441 69.7146C245.513 70.7066 245.049 72.2106 245.049 74.2266C245.049 76.2106 245.481 77.7146 246.345 78.7386C247.209 79.7306 248.457 80.2266 250.089 80.2266C250.665 80.2266 251.177 80.1466 251.625 79.9866C252.105 79.7946 252.473 79.5866 252.729 79.3626V68.8026C252.089 68.4186 251.321 68.2266 250.425 68.2266ZM280.662 86.6586C278.774 86.6586 277.014 86.4026 275.382 85.8906C273.782 85.3466 272.374 84.5466 271.158 83.4906C269.974 82.4346 269.03 81.1066 268.326 79.5066C267.654 77.9066 267.318 76.0346 267.318 73.8906C267.318 71.7786 267.654 69.9706 268.326 68.4666C269.03 66.9306 269.942 65.6826 271.062 64.7226C272.182 63.7306 273.462 63.0106 274.902 62.5626C276.342 62.0826 277.814 61.8426 279.318 61.8426C281.014 61.8426 282.55 62.0986 283.926 62.6106C285.334 63.1226 286.534 63.8266 287.526 64.7226C288.55 65.6186 289.334 66.6906 289.878 67.9386C290.454 69.1866 290.742 70.5466 290.742 72.0186C290.742 73.1066 290.438 73.9386 289.83 74.5146C289.222 75.0906 288.374 75.4586 287.286 75.6186L275.43 77.3946C275.782 78.4506 276.502 79.2506 277.59 79.7946C278.678 80.3066 279.926 80.5626 281.334 80.5626C282.646 80.5626 283.878 80.4026 285.03 80.0826C286.214 79.7306 287.174 79.3306 287.91 78.8826C288.422 79.2026 288.854 79.6506 289.206 80.2266C289.558 80.8026 289.734 81.4106 289.734 82.0506C289.734 83.4906 289.062 84.5626 287.718 85.2666C286.694 85.8106 285.542 86.1786 284.262 86.3706C282.982 86.5626 281.782 86.6586 280.662 86.6586ZM279.318 67.7946C278.55 67.7946 277.878 67.9226 277.302 68.1786C276.758 68.4346 276.31 68.7706 275.958 69.1866C275.606 69.5706 275.334 70.0186 275.142 70.5306C274.982 71.0106 274.886 71.5066 274.854 72.0186L283.062 70.6746C282.966 70.0346 282.614 69.3946 282.006 68.7546C281.398 68.1146 280.502 67.7946 279.318 67.7946ZM305.23 85.8426C304.91 85.9386 304.398 86.0346 303.694 86.1306C303.022 86.2266 302.318 86.2746 301.582 86.2746C300.878 86.2746 300.238 86.2266 299.662 86.1306C299.118 86.0346 298.654 85.8426 298.27 85.5546C297.886 85.2666 297.582 84.8826 297.358 84.4026C297.166 83.8906 297.07 83.2346 297.07 82.4346V68.0346C297.07 67.2986 297.198 66.6746 297.454 66.1626C297.742 65.6186 298.142 65.1386 298.654 64.7226C299.166 64.3066 299.79 63.9386 300.526 63.6186C301.294 63.2666 302.11 62.9626 302.974 62.7066C303.838 62.4506 304.734 62.2586 305.662 62.1306C306.59 61.9706 307.518 61.8906 308.446 61.8906C309.982 61.8906 311.198 62.1946 312.094 62.8026C312.99 63.3786 313.438 64.3386 313.438 65.6826C313.438 66.1306 313.374 66.5786 313.246 67.0266C313.118 67.4426 312.958 67.8266 312.766 68.1786C312.094 68.1786 311.406 68.2106 310.702 68.2746C309.998 68.3386 309.31 68.4346 308.638 68.5626C307.966 68.6906 307.326 68.8346 306.718 68.9946C306.142 69.1226 305.646 69.2826 305.23 69.4746V85.8426ZM342.458 74.2266C342.458 76.2106 342.154 77.9866 341.546 79.5546C340.938 81.0906 340.074 82.3866 338.954 83.4426C337.866 84.4986 336.554 85.2986 335.018 85.8426C333.482 86.3866 331.77 86.6586 329.882 86.6586C327.994 86.6586 326.282 86.3706 324.746 85.7946C323.21 85.2186 321.882 84.4026 320.762 83.3466C319.674 82.2586 318.826 80.9466 318.218 79.4106C317.61 77.8746 317.306 76.1466 317.306 74.2266C317.306 72.3386 317.61 70.6266 318.218 69.0906C318.826 67.5546 319.674 66.2586 320.762 65.2026C321.882 64.1146 323.21 63.2826 324.746 62.7066C326.282 62.1306 327.994 61.8426 329.882 61.8426C331.77 61.8426 333.482 62.1466 335.018 62.7546C336.554 63.3306 337.866 64.1626 338.954 65.2506C340.074 66.3066 340.938 67.6026 341.546 69.1386C342.154 70.6746 342.458 72.3706 342.458 74.2266ZM325.658 74.2266C325.658 76.1786 326.026 77.6826 326.762 78.7386C327.53 79.7626 328.586 80.2746 329.93 80.2746C331.274 80.2746 332.298 79.7466 333.002 78.6906C333.738 77.6346 334.106 76.1466 334.106 74.2266C334.106 72.3066 333.738 70.8346 333.002 69.8106C332.266 68.7546 331.226 68.2266 329.882 68.2266C328.538 68.2266 327.498 68.7546 326.762 69.8106C326.026 70.8346 325.658 72.3066 325.658 74.2266Z"/>
</mask>
<path d="M137.891 79.8906C138.339 80.0186 138.915 80.1146 139.619 80.1786C140.323 80.2106 140.995 80.2266 141.635 80.2266C142.915 80.2266 143.971 79.9706 144.803 79.4586C145.667 78.9146 146.099 78.0826 146.099 76.9626C146.099 75.9066 145.747 75.1546 145.043 74.7066C144.339 74.2586 143.267 74.0346 141.827 74.0346H137.891V79.8906ZM137.891 68.1786H141.395C142.771 68.1786 143.763 67.9226 144.371 67.4106C145.011 66.8986 145.331 66.1466 145.331 65.1546C145.331 64.2906 144.963 63.6026 144.227 63.0906C143.523 62.5786 142.451 62.3226 141.011 62.3226C140.531 62.3226 139.971 62.3386 139.331 62.3706C138.723 62.4026 138.243 62.4506 137.891 62.5146V68.1786ZM141.011 86.6586C140.467 86.6586 139.827 86.6426 139.091 86.6106C138.355 86.5786 137.587 86.5146 136.787 86.4186C136.019 86.3226 135.251 86.1946 134.483 86.0346C133.715 85.9066 133.011 85.7146 132.371 85.4586C130.611 84.7866 129.731 83.6186 129.731 81.9546V59.5386C129.731 58.8666 129.907 58.3546 130.259 58.0026C130.643 57.6186 131.155 57.3146 131.795 57.0906C132.883 56.7066 134.243 56.4346 135.875 56.2746C137.507 56.0826 139.187 55.9866 140.915 55.9866C145.011 55.9866 148.163 56.6746 150.371 58.0506C152.579 59.4266 153.683 61.5546 153.683 64.4346C153.683 65.8746 153.267 67.1226 152.435 68.1786C151.603 69.2026 150.483 69.9546 149.075 70.4346C150.675 70.8826 152.003 71.6986 153.059 72.8826C154.147 74.0666 154.691 75.5546 154.691 77.3466C154.691 80.5146 153.507 82.8666 151.139 84.4026C148.803 85.9066 145.427 86.6586 141.011 86.6586ZM185.229 74.2266C185.229 76.2106 184.925 77.9866 184.317 79.5546C183.709 81.0906 182.845 82.3866 181.725 83.4426C180.637 84.4986 179.325 85.2986 177.789 85.8426C176.253 86.3866 174.541 86.6586 172.653 86.6586C170.765 86.6586 169.053 86.3706 167.517 85.7946C165.981 85.2186 164.653 84.4026 163.533 83.3466C162.445 82.2586 161.597 80.9466 160.989 79.4106C160.381 77.8746 160.077 76.1466 160.077 74.2266C160.077 72.3386 160.381 70.6266 160.989 69.0906C161.597 67.5546 162.445 66.2586 163.533 65.2026C164.653 64.1146 165.981 63.2826 167.517 62.7066C169.053 62.1306 170.765 61.8426 172.653 61.8426C174.541 61.8426 176.253 62.1466 177.789 62.7546C179.325 63.3306 180.637 64.1626 181.725 65.2506C182.845 66.3066 183.709 67.6026 184.317 69.1386C184.925 70.6746 185.229 72.3706 185.229 74.2266ZM168.429 74.2266C168.429 76.1786 168.797 77.6826 169.533 78.7386C170.301 79.7626 171.357 80.2746 172.701 80.2746C174.045 80.2746 175.069 79.7466 175.773 78.6906C176.509 77.6346 176.877 76.1466 176.877 74.2266C176.877 72.3066 176.509 70.8346 175.773 69.8106C175.037 68.7546 173.997 68.2266 172.653 68.2266C171.309 68.2266 170.269 68.7546 169.533 69.8106C168.797 70.8346 168.429 72.3066 168.429 74.2266ZM191.61 62.8986C191.93 62.8026 192.426 62.7066 193.098 62.6106C193.802 62.5146 194.522 62.4666 195.258 62.4666C195.962 62.4666 196.586 62.5146 197.13 62.6106C197.706 62.7066 198.186 62.8986 198.57 63.1866C198.954 63.4746 199.242 63.8746 199.434 64.3866C199.658 64.8666 199.77 65.5066 199.77 66.3066V76.6266C199.77 77.9386 200.09 78.8826 200.73 79.4586C201.37 80.0026 202.298 80.2746 203.514 80.2746C204.25 80.2746 204.842 80.2106 205.29 80.0826C205.77 79.9546 206.138 79.8266 206.394 79.6986V62.8986C206.714 62.8026 207.21 62.7066 207.882 62.6106C208.586 62.5146 209.306 62.4666 210.042 62.4666C210.746 62.4666 211.37 62.5146 211.914 62.6106C212.49 62.7066 212.97 62.8986 213.354 63.1866C213.738 63.4746 214.026 63.8746 214.218 64.3866C214.442 64.8666 214.554 65.5066 214.554 66.3066V80.8986C214.554 82.4986 213.882 83.6986 212.538 84.4986C211.418 85.2026 210.074 85.7306 208.506 86.0826C206.97 86.4666 205.29 86.6586 203.466 86.6586C201.738 86.6586 200.138 86.4666 198.666 86.0826C197.226 85.6986 195.978 85.1066 194.922 84.3066C193.866 83.5066 193.05 82.4826 192.474 81.2346C191.898 79.9546 191.61 78.4186 191.61 76.6266V62.8986ZM230.252 85.8426C229.9 85.9066 229.372 85.9866 228.668 86.0826C227.996 86.2106 227.308 86.2746 226.604 86.2746C225.9 86.2746 225.26 86.2266 224.684 86.1306C224.14 86.0346 223.676 85.8426 223.292 85.5546C222.908 85.2666 222.604 84.8826 222.38 84.4026C222.188 83.8906 222.092 83.2346 222.092 82.4346V54.5946C222.444 54.5306 222.956 54.4506 223.628 54.3546C224.332 54.2266 225.036 54.1626 225.74 54.1626C226.444 54.1626 227.068 54.2106 227.612 54.3066C228.188 54.4026 228.668 54.5946 229.052 54.8826C229.436 55.1706 229.724 55.5706 229.916 56.0826C230.14 56.5626 230.252 57.2026 230.252 58.0026V85.8426ZM236.793 74.2266C236.793 72.1146 237.113 70.2906 237.753 68.7546C238.393 67.1866 239.273 65.8906 240.393 64.8666C241.545 63.8426 242.873 63.0906 244.377 62.6106C245.913 62.0986 247.561 61.8426 249.321 61.8426C249.961 61.8426 250.585 61.9066 251.193 62.0346C251.801 62.1306 252.297 62.2586 252.681 62.4186V54.6426C253.001 54.5466 253.513 54.4506 254.217 54.3546C254.921 54.2266 255.641 54.1626 256.377 54.1626C257.081 54.1626 257.705 54.2106 258.249 54.3066C258.825 54.4026 259.305 54.5946 259.689 54.8826C260.073 55.1706 260.361 55.5706 260.553 56.0826C260.745 56.5626 260.841 57.2026 260.841 58.0026V80.7546C260.841 82.2586 260.137 83.4586 258.729 84.3546C257.801 84.9626 256.601 85.4906 255.129 85.9386C253.657 86.4186 251.961 86.6586 250.041 86.6586C247.961 86.6586 246.089 86.3706 244.425 85.7946C242.793 85.2186 241.401 84.3866 240.249 83.2986C239.129 82.2106 238.265 80.9146 237.657 79.4106C237.081 77.8746 236.793 76.1466 236.793 74.2266ZM250.425 68.2266C248.697 68.2266 247.369 68.7226 246.441 69.7146C245.513 70.7066 245.049 72.2106 245.049 74.2266C245.049 76.2106 245.481 77.7146 246.345 78.7386C247.209 79.7306 248.457 80.2266 250.089 80.2266C250.665 80.2266 251.177 80.1466 251.625 79.9866C252.105 79.7946 252.473 79.5866 252.729 79.3626V68.8026C252.089 68.4186 251.321 68.2266 250.425 68.2266ZM280.662 86.6586C278.774 86.6586 277.014 86.4026 275.382 85.8906C273.782 85.3466 272.374 84.5466 271.158 83.4906C269.974 82.4346 269.03 81.1066 268.326 79.5066C267.654 77.9066 267.318 76.0346 267.318 73.8906C267.318 71.7786 267.654 69.9706 268.326 68.4666C269.03 66.9306 269.942 65.6826 271.062 64.7226C272.182 63.7306 273.462 63.0106 274.902 62.5626C276.342 62.0826 277.814 61.8426 279.318 61.8426C281.014 61.8426 282.55 62.0986 283.926 62.6106C285.334 63.1226 286.534 63.8266 287.526 64.7226C288.55 65.6186 289.334 66.6906 289.878 67.9386C290.454 69.1866 290.742 70.5466 290.742 72.0186C290.742 73.1066 290.438 73.9386 289.83 74.5146C289.222 75.0906 288.374 75.4586 287.286 75.6186L275.43 77.3946C275.782 78.4506 276.502 79.2506 277.59 79.7946C278.678 80.3066 279.926 80.5626 281.334 80.5626C282.646 80.5626 283.878 80.4026 285.03 80.0826C286.214 79.7306 287.174 79.3306 287.91 78.8826C288.422 79.2026 288.854 79.6506 289.206 80.2266C289.558 80.8026 289.734 81.4106 289.734 82.0506C289.734 83.4906 289.062 84.5626 287.718 85.2666C286.694 85.8106 285.542 86.1786 284.262 86.3706C282.982 86.5626 281.782 86.6586 280.662 86.6586ZM279.318 67.7946C278.55 67.7946 277.878 67.9226 277.302 68.1786C276.758 68.4346 276.31 68.7706 275.958 69.1866C275.606 69.5706 275.334 70.0186 275.142 70.5306C274.982 71.0106 274.886 71.5066 274.854 72.0186L283.062 70.6746C282.966 70.0346 282.614 69.3946 282.006 68.7546C281.398 68.1146 280.502 67.7946 279.318 67.7946ZM305.23 85.8426C304.91 85.9386 304.398 86.0346 303.694 86.1306C303.022 86.2266 302.318 86.2746 301.582 86.2746C300.878 86.2746 300.238 86.2266 299.662 86.1306C299.118 86.0346 298.654 85.8426 298.27 85.5546C297.886 85.2666 297.582 84.8826 297.358 84.4026C297.166 83.8906 297.07 83.2346 297.07 82.4346V68.0346C297.07 67.2986 297.198 66.6746 297.454 66.1626C297.742 65.6186 298.142 65.1386 298.654 64.7226C299.166 64.3066 299.79 63.9386 300.526 63.6186C301.294 63.2666 302.11 62.9626 302.974 62.7066C303.838 62.4506 304.734 62.2586 305.662 62.1306C306.59 61.9706 307.518 61.8906 308.446 61.8906C309.982 61.8906 311.198 62.1946 312.094 62.8026C312.99 63.3786 313.438 64.3386 313.438 65.6826C313.438 66.1306 313.374 66.5786 313.246 67.0266C313.118 67.4426 312.958 67.8266 312.766 68.1786C312.094 68.1786 311.406 68.2106 310.702 68.2746C309.998 68.3386 309.31 68.4346 308.638 68.5626C307.966 68.6906 307.326 68.8346 306.718 68.9946C306.142 69.1226 305.646 69.2826 305.23 69.4746V85.8426ZM342.458 74.2266C342.458 76.2106 342.154 77.9866 341.546 79.5546C340.938 81.0906 340.074 82.3866 338.954 83.4426C337.866 84.4986 336.554 85.2986 335.018 85.8426C333.482 86.3866 331.77 86.6586 329.882 86.6586C327.994 86.6586 326.282 86.3706 324.746 85.7946C323.21 85.2186 321.882 84.4026 320.762 83.3466C319.674 82.2586 318.826 80.9466 318.218 79.4106C317.61 77.8746 317.306 76.1466 317.306 74.2266C317.306 72.3386 317.61 70.6266 318.218 69.0906C318.826 67.5546 319.674 66.2586 320.762 65.2026C321.882 64.1146 323.21 63.2826 324.746 62.7066C326.282 62.1306 327.994 61.8426 329.882 61.8426C331.77 61.8426 333.482 62.1466 335.018 62.7546C336.554 63.3306 337.866 64.1626 338.954 65.2506C340.074 66.3066 340.938 67.6026 341.546 69.1386C342.154 70.6746 342.458 72.3706 342.458 74.2266ZM325.658 74.2266C325.658 76.1786 326.026 77.6826 326.762 78.7386C327.53 79.7626 328.586 80.2746 329.93 80.2746C331.274 80.2746 332.298 79.7466 333.002 78.6906C333.738 77.6346 334.106 76.1466 334.106 74.2266C334.106 72.3066 333.738 70.8346 333.002 69.8106C332.266 68.7546 331.226 68.2266 329.882 68.2266C328.538 68.2266 327.498 68.7546 326.762 69.8106C326.026 70.8346 325.658 72.3066 325.658 74.2266Z" fill="#FFCB44"/>
<path d="M137.891 79.8906H135.891V81.3992L137.342 81.8137L137.891 79.8906ZM139.619 80.1786L139.438 82.1704L139.483 82.1745L139.529 82.1766L139.619 80.1786ZM144.803 79.4586L145.852 81.1619L145.86 81.1566L145.869 81.1511L144.803 79.4586ZM145.043 74.7066L143.97 76.3939L143.97 76.3939L145.043 74.7066ZM137.891 74.0346V72.0346H135.891V74.0346H137.891ZM137.891 68.1786H135.891V70.1786H137.891V68.1786ZM144.371 67.4106L143.122 65.8489L143.102 65.8646L143.083 65.8808L144.371 67.4106ZM144.227 63.0906L143.051 64.7081L143.068 64.7204L143.085 64.7324L144.227 63.0906ZM139.331 62.3706L139.231 60.3731L139.226 60.3734L139.331 62.3706ZM137.891 62.5146L137.534 60.5469L135.891 60.8455V62.5146H137.891ZM136.787 86.4186L136.539 88.4032L136.549 88.4044L136.787 86.4186ZM134.483 86.0346L134.891 84.0767L134.852 84.0685L134.812 84.0618L134.483 86.0346ZM132.371 85.4586L133.114 83.6017L133.099 83.5958L133.085 83.5902L132.371 85.4586ZM130.259 58.0026L131.674 59.4168L131.674 59.4168L130.259 58.0026ZM131.795 57.0906L132.456 58.9783L132.461 58.9766L131.795 57.0906ZM135.875 56.2746L136.07 58.2651L136.09 58.2632L136.109 58.2609L135.875 56.2746ZM150.371 58.0506L151.429 56.3532L151.429 56.3532L150.371 58.0506ZM152.435 68.1786L153.988 69.4398L153.997 69.4282L154.006 69.4164L152.435 68.1786ZM149.075 70.4346L148.43 68.5416L142.327 70.6221L148.536 72.3606L149.075 70.4346ZM153.059 72.8826L151.567 74.2139L151.577 74.2249L151.587 74.2359L153.059 72.8826ZM151.139 84.4026L152.222 86.0842L152.228 86.0805L151.139 84.4026ZM137.342 81.8137C137.955 81.9888 138.666 82.1002 139.438 82.1704L139.8 78.1868C139.164 78.129 138.724 78.0484 138.441 77.9676L137.342 81.8137ZM139.529 82.1766C140.26 82.2098 140.962 82.2266 141.635 82.2266V78.2266C141.028 78.2266 140.387 78.2114 139.71 78.1807L139.529 82.1766ZM141.635 82.2266C143.173 82.2266 144.621 81.9194 145.852 81.1619L143.755 77.7553C143.322 78.0219 142.658 78.2266 141.635 78.2266V82.2266ZM145.869 81.1511C147.379 80.2005 148.099 78.6903 148.099 76.9626H144.099C144.099 77.4749 143.956 77.6288 143.738 77.7662L145.869 81.1511ZM148.099 76.9626C148.099 75.4295 147.553 73.9331 146.117 73.0193L143.97 76.3939C143.994 76.4092 144.002 76.4186 144.004 76.4209C144.006 76.4231 144.013 76.4315 144.024 76.4545C144.047 76.5032 144.099 76.6506 144.099 76.9626H148.099ZM146.117 73.0193C144.935 72.2672 143.404 72.0346 141.827 72.0346V76.0346C143.13 76.0346 143.744 76.2501 143.97 76.3939L146.117 73.0193ZM141.827 72.0346H137.891V76.0346H141.827V72.0346ZM135.891 74.0346V79.8906H139.891V74.0346H135.891ZM137.891 70.1786H141.395V66.1786H137.891V70.1786ZM141.395 70.1786C142.93 70.1786 144.508 69.9102 145.66 68.9404L143.083 65.8808C143.019 65.9351 142.613 66.1786 141.395 66.1786V70.1786ZM145.621 68.9724C146.836 68.0004 147.331 66.6126 147.331 65.1546H143.331C143.331 65.6807 143.187 65.7969 143.122 65.8489L145.621 68.9724ZM147.331 65.1546C147.331 63.6071 146.619 62.3179 145.369 61.4488L143.085 64.7324C143.233 64.835 143.278 64.9075 143.292 64.9339C143.304 64.9576 143.331 65.0157 143.331 65.1546H147.331ZM145.404 61.4732C144.199 60.597 142.622 60.3226 141.011 60.3226V64.3226C142.28 64.3226 142.848 64.5603 143.051 64.7081L145.404 61.4732ZM141.011 60.3226C140.489 60.3226 139.894 60.34 139.231 60.3731L139.431 64.3681C140.048 64.3373 140.574 64.3226 141.011 64.3226V60.3226ZM139.226 60.3734C138.583 60.4072 138.007 60.4608 137.534 60.5469L138.249 64.4824C138.48 64.4404 138.863 64.398 139.436 64.3679L139.226 60.3734ZM135.891 62.5146V68.1786H139.891V62.5146H135.891ZM141.011 84.6586C140.504 84.6586 139.895 84.6437 139.178 84.6125L139.004 88.6087C139.76 88.6416 140.43 88.6586 141.011 88.6586V84.6586ZM139.178 84.6125C138.497 84.5829 137.78 84.5234 137.026 84.4329L136.549 88.4044C137.395 88.5059 138.213 88.5743 139.004 88.6087L139.178 84.6125ZM137.035 84.4341C136.322 84.3449 135.607 84.2258 134.891 84.0767L134.075 87.9926C134.896 88.1635 135.717 88.3004 136.539 88.4032L137.035 84.4341ZM134.812 84.0618C134.168 83.9545 133.605 83.7979 133.114 83.6017L131.629 87.3156C132.418 87.6313 133.263 87.8588 134.155 88.0074L134.812 84.0618ZM133.085 83.5902C132.456 83.3502 132.146 83.0836 131.989 82.8751C131.845 82.6848 131.731 82.415 131.731 81.9546H127.731C127.731 83.1583 128.057 84.3044 128.794 85.2821C129.517 86.2417 130.526 86.895 131.658 87.3271L133.085 83.5902ZM131.731 81.9546V59.5386H127.731V81.9546H131.731ZM131.731 59.5386C131.731 59.3726 131.754 59.3041 131.755 59.3008C131.755 59.3006 131.75 59.3155 131.735 59.3395C131.72 59.3641 131.699 59.3912 131.674 59.4168L128.845 56.5884C128.002 57.4318 127.731 58.5271 127.731 59.5386H131.731ZM131.674 59.4168C131.799 59.2913 132.031 59.1271 132.456 58.9783L131.135 55.2029C130.28 55.5021 129.488 55.9459 128.845 56.5884L131.674 59.4168ZM132.461 58.9766C133.348 58.6635 134.538 58.4154 136.07 58.2651L135.68 54.2842C133.949 54.4539 132.419 54.7497 131.13 55.2046L132.461 58.9766ZM136.109 58.2609C137.66 58.0785 139.261 57.9866 140.915 57.9866V53.9866C139.113 53.9866 137.355 54.0867 135.642 54.2883L136.109 58.2609ZM140.915 57.9866C144.834 57.9866 147.556 58.6528 149.314 59.748L151.429 56.3532C148.771 54.6964 145.189 53.9866 140.915 53.9866V57.9866ZM149.314 59.748C150.864 60.7145 151.683 62.157 151.683 64.4346H155.683C155.683 60.9522 154.294 58.1387 151.429 56.3532L149.314 59.748ZM151.683 64.4346C151.683 65.4597 151.398 66.2635 150.864 66.9409L154.006 69.4164C155.137 67.9817 155.683 66.2895 155.683 64.4346H151.683ZM150.883 66.9174C150.317 67.6138 149.529 68.167 148.43 68.5416L149.721 72.3276C151.438 71.7423 152.889 70.7914 153.988 69.4398L150.883 66.9174ZM148.536 72.3606C149.786 72.7106 150.778 73.329 151.567 74.2139L154.552 71.5514C153.229 70.0683 151.564 69.0546 149.615 68.5087L148.536 72.3606ZM151.587 74.2359C152.296 75.0076 152.691 75.9939 152.691 77.3466H156.691C156.691 75.1154 155.999 73.1257 154.532 71.5294L151.587 74.2359ZM152.691 77.3466C152.691 79.9348 151.773 81.6077 150.051 82.7247L152.228 86.0805C155.242 84.1256 156.691 81.0945 156.691 77.3466H152.691ZM150.057 82.721C148.182 83.9281 145.25 84.6586 141.011 84.6586V88.6586C145.605 88.6586 149.425 87.8852 152.222 86.0842L150.057 82.721ZM184.317 79.5546L186.177 80.2907L186.182 80.2777L184.317 79.5546ZM181.725 83.4426L180.353 81.9874L180.343 81.9974L180.333 82.0075L181.725 83.4426ZM177.789 85.8426L177.122 83.9574L177.122 83.9574L177.789 85.8426ZM167.517 85.7946L166.815 87.6673L166.815 87.6673L167.517 85.7946ZM163.533 83.3466L162.119 84.7608L162.14 84.7816L162.161 84.8018L163.533 83.3466ZM160.989 79.4106L159.13 80.1467L159.13 80.1467L160.989 79.4106ZM160.989 69.0906L159.13 68.3545L159.13 68.3545L160.989 69.0906ZM163.533 65.2026L164.926 66.6378L164.927 66.6372L163.533 65.2026ZM167.517 62.7066L168.22 64.5793L168.22 64.5793L167.517 62.7066ZM177.789 62.7546L177.053 64.6142L177.07 64.6209L177.087 64.6273L177.789 62.7546ZM181.725 65.2506L180.311 66.6648L180.332 66.6856L180.353 66.7058L181.725 65.2506ZM184.317 69.1386L182.458 69.8747L182.458 69.8747L184.317 69.1386ZM169.533 78.7386L167.893 79.8822L167.913 79.9108L167.933 79.9386L169.533 78.7386ZM175.773 78.6906L174.133 77.547L174.121 77.564L174.109 77.5812L175.773 78.6906ZM175.773 69.8106L174.133 70.9542L174.141 70.9661L174.149 70.9779L175.773 69.8106ZM169.533 69.8106L171.157 70.9779L171.166 70.9661L171.174 70.9542L169.533 69.8106ZM183.229 74.2266C183.229 76.0069 182.957 77.5316 182.453 78.8316L186.182 80.2777C186.894 78.4417 187.229 76.4144 187.229 74.2266H183.229ZM182.458 78.8185C181.95 80.1023 181.245 81.147 180.353 81.9874L183.097 84.8978C184.446 83.6263 185.469 82.0789 186.177 80.2907L182.458 78.8185ZM180.333 82.0075C179.466 82.8483 178.407 83.5022 177.122 83.9574L178.457 87.7279C180.244 87.0951 181.809 86.1489 183.118 84.8778L180.333 82.0075ZM177.122 83.9574C175.831 84.4144 174.349 84.6586 172.653 84.6586V88.6586C174.733 88.6586 176.676 88.3588 178.457 87.7279L177.122 83.9574ZM172.653 84.6586C170.97 84.6586 169.5 84.4021 168.22 83.922L166.815 87.6673C168.607 88.3392 170.561 88.6586 172.653 88.6586V84.6586ZM168.22 83.922C166.916 83.433 165.82 82.7534 164.905 81.8914L162.161 84.8018C163.487 86.0518 165.047 87.0042 166.815 87.6673L168.22 83.922ZM164.948 81.9324C164.067 81.0516 163.364 79.9754 162.849 78.6745L159.13 80.1467C159.831 81.9179 160.824 83.4657 162.119 84.7608L164.948 81.9324ZM162.849 78.6745C162.348 77.4076 162.077 75.9349 162.077 74.2266H158.077C158.077 76.3583 158.415 78.3416 159.13 80.1467L162.849 78.6745ZM162.077 74.2266C162.077 72.555 162.346 71.0974 162.849 69.8267L159.13 68.3545C158.417 70.1559 158.077 72.1223 158.077 74.2266H162.077ZM162.849 69.8267C163.362 68.5303 164.059 67.4793 164.926 66.6378L162.141 63.7675C160.832 65.0379 159.833 66.5789 159.13 68.3545L162.849 69.8267ZM164.927 66.6372C165.839 65.751 166.929 65.0635 168.22 64.5793L166.815 60.834C165.034 61.5018 163.468 62.4783 162.14 63.7681L164.927 66.6372ZM168.22 64.5793C169.5 64.0992 170.97 63.8426 172.653 63.8426V59.8426C170.561 59.8426 168.607 60.1621 166.815 60.834L168.22 64.5793ZM172.653 63.8426C174.325 63.8426 175.783 64.1113 177.053 64.6142L178.526 60.895C176.724 60.182 174.758 59.8426 172.653 59.8426V63.8426ZM177.087 64.6273C178.374 65.1098 179.438 65.7919 180.311 66.6648L183.14 63.8364C181.837 62.5334 180.277 61.5515 178.492 60.882L177.087 64.6273ZM180.353 66.7058C181.245 67.5463 181.95 68.5909 182.458 69.8747L186.177 68.4025C185.469 66.6143 184.446 65.067 183.097 63.7954L180.353 66.7058ZM182.458 69.8747C182.962 71.1492 183.229 72.5917 183.229 74.2266H187.229C187.229 72.1496 186.889 70.2 186.177 68.4025L182.458 69.8747ZM166.429 74.2266C166.429 76.3893 166.831 78.3583 167.893 79.8822L171.174 77.595C170.764 77.0069 170.429 75.9679 170.429 74.2266H166.429ZM167.933 79.9386C169.101 81.495 170.765 82.2746 172.701 82.2746V78.2746C171.95 78.2746 171.502 78.0303 171.133 77.5386L167.933 79.9386ZM172.701 82.2746C174.667 82.2746 176.337 81.4504 177.438 79.8L174.109 77.5812C173.802 78.0428 173.424 78.2746 172.701 78.2746V82.2746ZM177.414 79.8342C178.473 78.3148 178.877 76.3656 178.877 74.2266H174.877C174.877 75.9276 174.546 76.9544 174.133 77.547L177.414 79.8342ZM178.877 74.2266C178.877 72.0936 178.476 70.1433 177.397 68.6434L174.149 70.9779C174.543 71.526 174.877 72.5197 174.877 74.2266H178.877ZM177.414 68.667C176.285 67.0469 174.617 66.2266 172.653 66.2266V70.2266C173.378 70.2266 173.79 70.4623 174.133 70.9542L177.414 68.667ZM172.653 66.2266C170.69 66.2266 169.022 67.0469 167.893 68.667L171.174 70.9542C171.517 70.4623 171.929 70.2266 172.653 70.2266V66.2266ZM167.909 68.6434C166.831 70.1433 166.429 72.0936 166.429 74.2266H170.429C170.429 72.5197 170.764 71.526 171.157 70.9779L167.909 68.6434ZM191.61 62.8986L191.036 60.983L189.61 61.4106V62.8986H191.61ZM193.098 62.6106L192.828 60.6289L192.816 60.6307L193.098 62.6106ZM197.13 62.6106L196.783 64.5802L196.792 64.5818L196.802 64.5834L197.13 62.6106ZM198.57 63.1866L199.77 61.5866L199.77 61.5866L198.57 63.1866ZM199.434 64.3866L197.562 65.0889L197.589 65.1618L197.622 65.2324L199.434 64.3866ZM200.73 79.4586L199.393 80.9452L199.414 80.9642L199.435 80.9825L200.73 79.4586ZM205.29 80.0826L204.775 78.1502L204.758 78.1547L204.741 78.1596L205.29 80.0826ZM206.394 79.6986L207.289 81.4875L208.394 80.9347V79.6986H206.394ZM206.394 62.8986L205.82 60.983L204.394 61.4106V62.8986H206.394ZM207.882 62.6106L207.612 60.6289L207.6 60.6307L207.882 62.6106ZM211.914 62.6106L211.567 64.5802L211.576 64.5818L211.586 64.5834L211.914 62.6106ZM213.354 63.1866L212.154 64.7866L212.154 64.7866L213.354 63.1866ZM214.218 64.3866L212.346 65.0889L212.373 65.1618L212.406 65.2324L214.218 64.3866ZM212.538 84.4986L211.515 82.78L211.495 82.7924L211.474 82.8054L212.538 84.4986ZM208.506 86.0826L208.068 84.1312L208.045 84.1365L208.021 84.1423L208.506 86.0826ZM198.666 86.0826L198.151 88.0151L198.162 88.0179L198.666 86.0826ZM194.922 84.3066L193.715 85.9008L193.715 85.9008L194.922 84.3066ZM192.474 81.2346L190.651 82.0554L190.655 82.0641L190.659 82.0727L192.474 81.2346ZM192.185 64.8143C192.355 64.7632 192.729 64.6837 193.381 64.5905L192.816 60.6307C192.124 60.7296 191.505 60.8421 191.036 60.983L192.185 64.8143ZM193.369 64.5923C193.98 64.5089 194.61 64.4666 195.258 64.4666V60.4666C194.435 60.4666 193.625 60.5203 192.828 60.629L193.369 64.5923ZM195.258 64.4666C195.876 64.4666 196.38 64.5091 196.783 64.5802L197.478 60.6411C196.793 60.5202 196.049 60.4666 195.258 60.4666V64.4666ZM196.802 64.5834C197.129 64.638 197.293 64.7282 197.37 64.7866L199.77 61.5866C199.08 61.0691 198.284 60.7752 197.459 60.6378L196.802 64.5834ZM197.37 64.7866C197.408 64.815 197.485 64.8831 197.562 65.0889L201.307 63.6844C201 62.8661 200.501 62.1342 199.77 61.5866L197.37 64.7866ZM197.622 65.2324C197.676 65.3474 197.77 65.6633 197.77 66.3066H201.77C201.77 65.3499 201.641 64.3859 201.247 63.5409L197.622 65.2324ZM197.77 66.3066V76.6266H201.77V66.3066H197.77ZM197.77 76.6266C197.77 78.2091 198.152 79.8288 199.393 80.9452L202.068 77.972C202.029 77.9364 201.77 77.6681 201.77 76.6266H197.77ZM199.435 80.9825C200.569 81.946 202.032 82.2746 203.514 82.2746V78.2746C202.565 78.2746 202.172 78.0592 202.026 77.9347L199.435 80.9825ZM203.514 82.2746C204.342 82.2746 205.141 82.2054 205.84 82.0057L204.741 78.1596C204.544 78.2159 204.159 78.2746 203.514 78.2746V82.2746ZM205.806 82.0151C206.336 81.8736 206.855 81.7045 207.289 81.4875L205.5 77.9098C205.422 77.9488 205.205 78.0356 204.775 78.1502L205.806 82.0151ZM208.394 79.6986V62.8986H204.394V79.6986H208.394ZM206.969 64.8143C207.139 64.7632 207.513 64.6837 208.165 64.5905L207.6 60.6307C206.908 60.7296 206.289 60.8421 205.82 60.983L206.969 64.8143ZM208.153 64.5923C208.764 64.5089 209.394 64.4666 210.042 64.4666V60.4666C209.219 60.4666 208.409 60.5203 207.612 60.629L208.153 64.5923ZM210.042 64.4666C210.66 64.4666 211.164 64.5091 211.567 64.5802L212.262 60.6411C211.577 60.5202 210.833 60.4666 210.042 60.4666V64.4666ZM211.586 64.5834C211.913 64.638 212.077 64.7282 212.154 64.7866L214.554 61.5866C213.864 61.0691 213.068 60.7752 212.243 60.6378L211.586 64.5834ZM212.154 64.7866C212.192 64.815 212.269 64.8831 212.346 65.0889L216.091 63.6844C215.784 62.8661 215.285 62.1342 214.554 61.5866L212.154 64.7866ZM212.406 65.2324C212.46 65.3474 212.554 65.6633 212.554 66.3066H216.554C216.554 65.3499 216.425 64.3859 216.031 63.5408L212.406 65.2324ZM212.554 66.3066V80.8986H216.554V66.3066H212.554ZM212.554 80.8986C212.554 81.8135 212.237 82.3507 211.515 82.78L213.561 86.2172C215.528 85.0465 216.554 83.1837 216.554 80.8986H212.554ZM211.474 82.8054C210.583 83.3655 209.461 83.8187 208.068 84.1312L208.945 88.0341C210.688 87.6426 212.254 87.0398 213.603 86.1919L211.474 82.8054ZM208.021 84.1423C206.666 84.4812 205.151 84.6586 203.466 84.6586V88.6586C205.43 88.6586 207.275 88.452 208.992 88.0229L208.021 84.1423ZM203.466 84.6586C201.886 84.6586 200.458 84.483 199.171 84.1474L198.162 88.0179C199.819 88.4502 201.591 88.6586 203.466 88.6586V84.6586ZM199.182 84.1502C197.961 83.8246 196.955 83.3375 196.13 82.7124L193.715 85.9008C195.002 86.8758 196.492 87.5726 198.151 88.0151L199.182 84.1502ZM196.13 82.7124C195.346 82.1183 194.734 81.358 194.29 80.3965L190.659 82.0727C191.367 83.6073 192.387 84.895 193.715 85.9008L196.13 82.7124ZM194.298 80.4139C193.866 79.4528 193.61 78.2111 193.61 76.6266H189.61C189.61 78.6261 189.931 80.4564 190.651 82.0554L194.298 80.4139ZM193.61 76.6266V62.8986H189.61V76.6266H193.61ZM230.252 85.8426L230.61 87.8104L232.252 87.5118V85.8426H230.252ZM228.668 86.0826L228.398 84.101L228.346 84.1081L228.294 84.1179L228.668 86.0826ZM224.684 86.1306L224.336 88.1002L224.346 88.1018L224.355 88.1034L224.684 86.1306ZM223.292 85.5546L222.092 87.1546L223.292 85.5546ZM222.38 84.4026L220.507 85.1049L220.535 85.1778L220.568 85.2484L222.38 84.4026ZM222.092 54.5946L221.734 52.6269L220.092 52.9255V54.5946H222.092ZM223.628 54.3546L223.911 56.3345L223.948 56.3292L223.986 56.3224L223.628 54.3546ZM227.612 54.3066L227.264 56.2762L227.274 56.2778L227.283 56.2794L227.612 54.3066ZM229.052 54.8826L227.852 56.4826L227.852 56.4826L229.052 54.8826ZM229.916 56.0826L228.043 56.7849L228.071 56.8578L228.104 56.9284L229.916 56.0826ZM229.894 83.8749C229.587 83.9307 229.095 84.0059 228.398 84.101L228.938 88.0643C229.649 87.9674 230.213 87.8826 230.61 87.8104L229.894 83.8749ZM228.294 84.1179C227.749 84.2218 227.186 84.2746 226.604 84.2746V88.2746C227.43 88.2746 228.243 88.1995 229.042 88.0473L228.294 84.1179ZM226.604 84.2746C225.989 84.2746 225.461 84.2325 225.013 84.1578L224.355 88.1034C225.059 88.2208 225.811 88.2746 226.604 88.2746V84.2746ZM225.032 84.1611C224.75 84.1114 224.589 84.0276 224.492 83.9546L222.092 87.1546C222.763 87.6576 223.53 87.9579 224.336 88.1002L225.032 84.1611ZM224.492 83.9546C224.397 83.8837 224.292 83.7704 224.192 83.5569L220.568 85.2484C220.916 85.9949 221.419 86.6495 222.092 87.1546L224.492 83.9546ZM224.253 83.7004C224.174 83.4913 224.092 83.0958 224.092 82.4346H220.092C220.092 83.3734 220.202 84.29 220.507 85.1049L224.253 83.7004ZM224.092 82.4346V54.5946H220.092V82.4346H224.092ZM222.45 56.5624C222.764 56.5053 223.246 56.4295 223.911 56.3345L223.345 52.3747C222.666 52.4717 222.124 52.556 221.734 52.6269L222.45 56.5624ZM223.986 56.3224C224.574 56.2155 225.158 56.1626 225.74 56.1626V52.1626C224.914 52.1626 224.09 52.2378 223.27 52.3869L223.986 56.3224ZM225.74 56.1626C226.357 56.1626 226.861 56.2051 227.264 56.2762L227.96 52.3371C227.275 52.2162 226.53 52.1626 225.74 52.1626V56.1626ZM227.283 56.2794C227.611 56.334 227.774 56.4242 227.852 56.4826L230.252 53.2826C229.562 52.7651 228.765 52.4712 227.941 52.3338L227.283 56.2794ZM227.852 56.4826C227.89 56.511 227.966 56.5791 228.043 56.7849L231.789 55.3804C231.482 54.5621 230.982 53.8302 230.252 53.2826L227.852 56.4826ZM228.104 56.9284C228.157 57.0434 228.252 57.3593 228.252 58.0026H232.252C232.252 57.0459 232.123 56.0819 231.728 55.2369L228.104 56.9284ZM228.252 58.0026V85.8426H232.252V58.0026H228.252ZM237.753 68.7546L239.599 69.5239L239.602 69.5171L239.605 69.5104L237.753 68.7546ZM240.393 64.8666L239.064 63.3718L239.054 63.3811L239.044 63.3906L240.393 64.8666ZM244.377 62.6106L244.985 64.5159L244.997 64.512L245.01 64.508L244.377 62.6106ZM251.193 62.0346L250.781 63.9917L250.831 64.0022L250.881 64.0102L251.193 62.0346ZM252.681 62.4186L251.912 64.2648L254.681 65.4186V62.4186H252.681ZM252.681 54.6426L252.106 52.727L250.681 53.1546V54.6426H252.681ZM254.217 54.3546L254.487 56.3363L254.531 56.3303L254.575 56.3224L254.217 54.3546ZM258.249 54.3066L257.902 56.2762L257.911 56.2778L257.92 56.2794L258.249 54.3066ZM259.689 54.8826L258.489 56.4826L258.489 56.4826L259.689 54.8826ZM260.553 56.0826L258.68 56.7849L258.688 56.8052L258.696 56.8254L260.553 56.0826ZM258.729 84.3546L257.655 82.6673L257.644 82.6744L257.633 82.6817L258.729 84.3546ZM255.129 85.9386L254.547 84.0253L254.528 84.031L254.509 84.0372L255.129 85.9386ZM244.425 85.7946L243.759 87.6806L243.771 87.6846L244.425 85.7946ZM240.249 83.2986L238.856 84.7332L238.866 84.743L238.876 84.7527L240.249 83.2986ZM237.657 79.4106L235.784 80.1129L235.793 80.1367L235.803 80.1602L237.657 79.4106ZM246.441 69.7146L247.902 71.0809L247.902 71.0809L246.441 69.7146ZM246.345 78.7386L244.816 80.0284L244.827 80.0404L244.837 80.0522L246.345 78.7386ZM251.625 79.9866L252.298 81.8701L252.333 81.8575L252.368 81.8436L251.625 79.9866ZM252.729 79.3626L254.046 80.8678L254.729 80.2702V79.3626H252.729ZM252.729 68.8026H254.729V67.6702L253.758 67.0876L252.729 68.8026ZM238.793 74.2266C238.793 72.3103 239.084 70.7601 239.599 69.5239L235.907 67.9854C235.142 69.8212 234.793 71.9189 234.793 74.2266H238.793ZM239.605 69.5104C240.146 68.1847 240.865 67.1446 241.743 66.3427L239.044 63.3906C237.681 64.6366 236.64 66.1886 235.901 67.9988L239.605 69.5104ZM241.722 66.3614C242.66 65.5277 243.741 64.9131 244.985 64.5159L243.769 60.7053C242.005 61.2682 240.43 62.1575 239.064 63.3718L241.722 66.3614ZM245.01 64.508C246.325 64.0696 247.757 63.8426 249.321 63.8426V59.8426C247.365 59.8426 245.502 60.1276 243.745 60.7133L245.01 64.508ZM249.321 63.8426C249.827 63.8426 250.313 63.8931 250.781 63.9917L251.605 60.0775C250.858 59.9202 250.095 59.8426 249.321 59.8426V63.8426ZM250.881 64.0102C251.399 64.092 251.726 64.1875 251.912 64.2648L253.45 60.5725C252.868 60.3297 252.203 60.1693 251.505 60.0591L250.881 64.0102ZM254.681 62.4186V54.6426H250.681V62.4186H254.681ZM253.256 56.5583C253.417 56.5099 253.798 56.4302 254.487 56.3363L253.947 52.373C253.228 52.471 252.585 52.5834 252.106 52.727L253.256 56.5583ZM254.575 56.3224C255.157 56.2164 255.758 56.1626 256.377 56.1626V52.1626C255.525 52.1626 254.685 52.2368 253.859 52.3869L254.575 56.3224ZM256.377 56.1626C256.995 56.1626 257.498 56.2051 257.902 56.2762L258.597 52.3371C257.912 52.2162 257.168 52.1626 256.377 52.1626V56.1626ZM257.92 56.2794C258.248 56.334 258.411 56.4242 258.489 56.4826L260.889 53.2826C260.199 52.7651 259.402 52.4712 258.578 52.3338L257.92 56.2794ZM258.489 56.4826C258.527 56.511 258.603 56.5791 258.68 56.7849L262.426 55.3804C262.119 54.5621 261.619 53.8302 260.889 53.2826L258.489 56.4826ZM258.696 56.8254C258.756 56.9761 258.841 57.3327 258.841 58.0026H262.841C262.841 57.0725 262.734 56.1492 262.41 55.3398L258.696 56.8254ZM258.841 58.0026V80.7546H262.841V58.0026H258.841ZM258.841 80.7546C258.841 81.4903 258.562 82.0906 257.655 82.6673L259.803 86.0419C261.713 84.8266 262.841 83.0269 262.841 80.7546H258.841ZM257.633 82.6817C256.912 83.1541 255.902 83.6129 254.547 84.0253L255.711 87.852C257.301 87.3683 258.69 86.7712 259.825 86.0275L257.633 82.6817ZM254.509 84.0372C253.279 84.4384 251.799 84.6586 250.041 84.6586V88.6586C252.123 88.6586 254.036 88.3989 255.749 87.8401L254.509 84.0372ZM250.041 84.6586C248.144 84.6586 246.499 84.396 245.079 83.9047L243.771 87.6846C245.68 88.3453 247.778 88.6586 250.041 88.6586V84.6586ZM245.091 83.9086C243.698 83.417 242.553 82.7237 241.622 81.8446L238.876 84.7527C240.249 86.0496 241.889 87.0203 243.759 87.6806L245.091 83.9086ZM241.643 81.8641C240.73 80.9775 240.019 79.9174 239.511 78.661L235.803 80.1602C236.511 81.9118 237.528 83.4438 238.856 84.7332L241.643 81.8641ZM239.53 78.7084C239.051 77.4316 238.793 75.9469 238.793 74.2266H234.793C234.793 76.3464 235.111 78.3176 235.784 80.1129L239.53 78.7084ZM250.425 66.2266C248.303 66.2266 246.384 66.8485 244.981 68.3483L247.902 71.0809C248.355 70.5967 249.091 70.2266 250.425 70.2266V66.2266ZM244.981 68.3483C243.57 69.8558 243.049 71.9446 243.049 74.2266H247.049C247.049 72.4767 247.456 71.5574 247.902 71.0809L244.981 68.3483ZM243.049 74.2266C243.049 76.4627 243.531 78.5051 244.816 80.0284L247.874 77.4489C247.431 76.9242 247.049 75.9586 247.049 74.2266H243.049ZM244.837 80.0522C246.17 81.5824 248.029 82.2266 250.089 82.2266V78.2266C248.885 78.2266 248.249 77.8789 247.853 77.4251L244.837 80.0522ZM250.089 82.2266C250.847 82.2266 251.594 82.1215 252.298 81.8701L250.952 78.1031C250.76 78.1717 250.483 78.2266 250.089 78.2266V82.2266ZM252.368 81.8436C252.96 81.6066 253.556 81.2969 254.046 80.8678L251.412 77.8575C251.391 77.8763 251.25 77.9826 250.882 78.1297L252.368 81.8436ZM254.729 79.3626V68.8026H250.729V79.3626H254.729ZM253.758 67.0876C252.75 66.4829 251.611 66.2266 250.425 66.2266V70.2266C251.032 70.2266 251.428 70.3544 251.7 70.5176L253.758 67.0876ZM275.382 85.8906L274.738 87.7842L274.761 87.7918L274.783 87.7989L275.382 85.8906ZM271.158 83.4906L269.827 84.9832L269.837 84.992L269.847 85.0007L271.158 83.4906ZM268.326 79.5066L266.482 80.2811L266.489 80.2967L266.495 80.3121L268.326 79.5066ZM268.326 68.4666L266.508 67.6333L266.504 67.642L266.5 67.6507L268.326 68.4666ZM271.062 64.7226L272.364 66.2411L272.376 66.2306L272.388 66.2198L271.062 64.7226ZM274.902 62.5626L275.496 64.4723L275.515 64.4664L275.535 64.46L274.902 62.5626ZM283.926 62.6106L283.229 64.4851L283.236 64.4877L283.243 64.4902L283.926 62.6106ZM287.526 64.7226L286.186 66.2068L286.197 66.2174L286.209 66.2278L287.526 64.7226ZM289.878 67.9386L288.045 68.7378L288.053 68.7574L288.062 68.7767L289.878 67.9386ZM289.83 74.5146L288.455 73.0627L288.455 73.0627L289.83 74.5146ZM287.286 75.6186L286.995 73.6399L286.99 73.6407L287.286 75.6186ZM275.43 77.3946L275.134 75.4167L272.78 75.7693L273.533 78.0271L275.43 77.3946ZM277.59 79.7946L276.696 81.5835L276.717 81.5941L276.738 81.6043L277.59 79.7946ZM285.03 80.0826L285.565 82.0097L285.583 82.0048L285.6 81.9997L285.03 80.0826ZM287.91 78.8826L288.97 77.1866L287.924 76.5328L286.87 77.1742L287.91 78.8826ZM289.206 80.2266L290.913 79.1837L290.913 79.1837L289.206 80.2266ZM287.718 85.2666L286.79 83.4949L286.78 83.5004L287.718 85.2666ZM284.262 86.3706L283.965 84.3928L283.965 84.3928L284.262 86.3706ZM277.302 68.1786L276.49 66.351L276.47 66.3598L276.45 66.369L277.302 68.1786ZM275.958 69.1866L277.432 70.5381L277.459 70.5088L277.485 70.4785L275.958 69.1866ZM275.142 70.5306L273.269 69.8284L273.256 69.863L273.245 69.8982L275.142 70.5306ZM274.854 72.0186L272.858 71.8939L272.701 74.3977L275.177 73.9923L274.854 72.0186ZM283.062 70.6746L283.385 72.6483L285.333 72.3295L285.04 70.3779L283.062 70.6746ZM282.006 68.7546L283.456 67.3771L283.456 67.3771L282.006 68.7546ZM280.662 84.6586C278.956 84.6586 277.4 84.4276 275.981 83.9823L274.783 87.7989C276.628 88.3777 278.592 88.6586 280.662 88.6586V84.6586ZM276.026 83.9971C274.659 83.5323 273.48 82.8584 272.469 81.9806L269.847 85.0007C271.268 86.2349 272.905 87.161 274.738 87.7842L276.026 83.9971ZM272.489 81.998C271.54 81.1513 270.757 80.0659 270.157 78.7011L266.495 80.3121C267.303 82.1473 268.408 83.7179 269.827 84.9832L272.489 81.998ZM270.17 78.7322C269.622 77.4278 269.318 75.8294 269.318 73.8906H265.318C265.318 76.2398 265.686 78.3855 266.482 80.2811L270.17 78.7322ZM269.318 73.8906C269.318 71.9835 269.622 70.4683 270.152 69.2825L266.5 67.6507C265.686 69.473 265.318 71.5737 265.318 73.8906H269.318ZM270.144 69.2999C270.745 67.9888 271.493 66.9872 272.364 66.2411L269.76 63.2041C268.391 64.378 267.315 65.8724 266.508 67.6333L270.144 69.2999ZM272.388 66.2198C273.294 65.4171 274.324 64.8369 275.496 64.4723L274.308 60.6529C272.6 61.1844 271.07 62.0441 269.736 63.2254L272.388 66.2198ZM275.535 64.46C276.773 64.0473 278.031 63.8426 279.318 63.8426V59.8426C277.597 59.8426 275.912 60.1179 274.27 60.6653L275.535 64.46ZM279.318 63.8426C280.812 63.8426 282.108 64.0679 283.229 64.4851L284.624 60.7362C282.993 60.1293 281.216 59.8426 279.318 59.8426V63.8426ZM283.243 64.4902C284.437 64.9247 285.407 65.5035 286.186 66.2068L288.867 63.2384C287.661 62.1498 286.231 61.3206 284.61 60.731L283.243 64.4902ZM286.209 66.2278C287.011 66.9293 287.619 67.7602 288.045 68.7378L291.711 67.1395C291.05 65.6211 290.089 64.3079 288.843 63.2175L286.209 66.2278ZM288.062 68.7767C288.508 69.7437 288.742 70.8151 288.742 72.0186H292.742C292.742 70.2781 292.4 68.6296 291.694 67.1005L288.062 68.7767ZM288.742 72.0186C288.742 72.7301 288.554 72.9687 288.455 73.0627L291.206 75.9665C292.322 74.9085 292.742 73.4831 292.742 72.0186H288.742ZM288.455 73.0627C288.226 73.2791 287.802 73.5212 286.995 73.6399L287.577 77.5973C288.946 77.396 290.218 76.9022 291.206 75.9665L288.455 73.0627ZM286.99 73.6407L275.134 75.4167L275.726 79.3726L287.582 77.5966L286.99 73.6407ZM273.533 78.0271C274.069 79.6355 275.182 80.8265 276.696 81.5835L278.485 78.0058C277.822 77.6748 277.495 77.2658 277.327 76.7622L273.533 78.0271ZM276.738 81.6043C278.135 82.2613 279.682 82.5626 281.334 82.5626V78.5626C280.171 78.5626 279.221 78.352 278.442 77.985L276.738 81.6043ZM281.334 82.5626C282.81 82.5626 284.223 82.3825 285.565 82.0097L284.495 78.1556C283.533 78.4227 282.483 78.5626 281.334 78.5626V82.5626ZM285.6 81.9997C286.884 81.6179 288.019 81.1579 288.95 80.591L286.87 77.1742C286.33 77.5033 285.544 77.8433 284.46 78.1656L285.6 81.9997ZM286.85 80.5786C287.069 80.7155 287.29 80.9268 287.5 81.2695L290.913 79.1837C290.418 78.3744 289.775 77.6898 288.97 77.1866L286.85 80.5786ZM287.5 81.2695C287.671 81.5495 287.734 81.7991 287.734 82.0506H291.734C291.734 81.0221 291.446 80.0558 290.913 79.1837L287.5 81.2695ZM287.734 82.0506C287.734 82.4481 287.645 82.697 287.536 82.8724C287.422 83.0534 287.211 83.2745 286.79 83.495L288.646 87.0383C289.569 86.5547 290.366 85.8878 290.925 84.9969C291.487 84.1003 291.734 83.0932 291.734 82.0506H287.734ZM286.78 83.5004C285.978 83.9264 285.047 84.2305 283.965 84.3928L284.559 88.3485C286.037 88.1267 287.41 87.6949 288.656 87.0329L286.78 83.5004ZM283.965 84.3928C282.769 84.5722 281.669 84.6586 280.662 84.6586V88.6586C281.895 88.6586 283.195 88.553 284.559 88.3485L283.965 84.3928ZM279.318 65.7946C278.33 65.7946 277.371 65.9594 276.49 66.351L278.114 70.0062C278.385 69.8859 278.77 69.7946 279.318 69.7946V65.7946ZM276.45 66.369C275.674 66.7344 274.987 67.238 274.431 67.8947L277.485 70.4785C277.633 70.3032 277.842 70.1348 278.154 69.9883L276.45 66.369ZM274.484 67.8352C273.95 68.4174 273.547 69.0886 273.269 69.8284L277.015 71.2329C277.121 70.9487 277.262 70.7239 277.432 70.5381L274.484 67.8352ZM273.245 69.8982C273.029 70.5447 272.901 71.2115 272.858 71.8939L276.85 72.1434C276.872 71.8017 276.935 71.4765 277.039 71.1631L273.245 69.8982ZM275.177 73.9923L283.385 72.6483L282.739 68.7009L274.531 70.0449L275.177 73.9923ZM285.04 70.3779C284.864 69.2083 284.246 68.2088 283.456 67.3771L280.556 70.1321C280.982 70.5804 281.068 70.861 281.084 70.9713L285.04 70.3779ZM283.456 67.3771C282.355 66.2178 280.856 65.7946 279.318 65.7946V69.7946C280.148 69.7946 280.441 70.0114 280.556 70.1321L283.456 67.3771ZM305.23 85.8426L305.805 87.7583L307.23 87.3307V85.8426H305.23ZM303.694 86.1306L303.424 84.1489L303.411 84.1507L303.694 86.1306ZM299.662 86.1306L299.314 88.1002L299.324 88.1018L299.333 88.1034L299.662 86.1306ZM298.27 85.5546L299.47 83.9546L299.47 83.9546L298.27 85.5546ZM297.358 84.4026L295.485 85.1049L295.513 85.1778L295.545 85.2484L297.358 84.4026ZM297.454 66.1626L295.686 65.2268L295.675 65.2474L295.665 65.2682L297.454 66.1626ZM298.654 64.7226L299.915 66.2749L299.915 66.2749L298.654 64.7226ZM300.526 63.6186L301.323 65.4528L301.341 65.4449L301.359 65.4368L300.526 63.6186ZM302.974 62.7066L303.542 64.6242L303.542 64.6242L302.974 62.7066ZM305.662 62.1306L305.935 64.1119L305.968 64.1073L306.002 64.1015L305.662 62.1306ZM312.094 62.8026L310.971 64.4576L310.991 64.4715L311.012 64.485L312.094 62.8026ZM313.246 67.0266L315.157 67.6148L315.163 67.5955L315.169 67.5761L313.246 67.0266ZM312.766 68.1786V70.1786H313.953L314.522 69.1363L312.766 68.1786ZM310.702 68.2746L310.883 70.2664L310.883 70.2664L310.702 68.2746ZM308.638 68.5626L308.264 66.5979L308.264 66.5979L308.638 68.5626ZM306.718 68.9946L307.152 70.947L307.189 70.9386L307.227 70.9288L306.718 68.9946ZM305.23 69.4746L304.392 67.6587L303.23 68.195V69.4746H305.23ZM304.655 83.927C304.494 83.9754 304.113 84.055 303.424 84.149L303.964 88.1123C304.683 88.0142 305.326 87.9019 305.805 87.7583L304.655 83.927ZM303.411 84.1507C302.84 84.2323 302.231 84.2746 301.582 84.2746V88.2746C302.405 88.2746 303.204 88.221 303.977 88.1105L303.411 84.1507ZM301.582 84.2746C300.966 84.2746 300.439 84.2325 299.991 84.1578L299.333 88.1034C300.037 88.2208 300.789 88.2746 301.582 88.2746V84.2746ZM300.009 84.1611C299.728 84.1114 299.567 84.0276 299.47 83.9546L297.07 87.1546C297.74 87.6576 298.508 87.9579 299.314 88.1002L300.009 84.1611ZM299.47 83.9546C299.375 83.8837 299.27 83.7704 299.17 83.5569L295.545 85.2484C295.894 85.9949 296.396 86.6495 297.07 87.1546L299.47 83.9546ZM299.23 83.7004C299.152 83.4913 299.07 83.0958 299.07 82.4346H295.07C295.07 83.3734 295.18 84.29 295.485 85.1049L299.23 83.7004ZM299.07 82.4346V68.0346H295.07V82.4346H299.07ZM299.07 68.0346C299.07 67.5232 299.159 67.2236 299.243 67.0571L295.665 65.2682C295.236 66.1257 295.07 67.074 295.07 68.0346H299.07ZM299.221 67.0984C299.375 66.8085 299.596 66.5338 299.915 66.2749L297.393 63.1704C296.687 63.7435 296.109 64.4288 295.686 65.2268L299.221 67.0984ZM299.915 66.2749C300.259 65.9951 300.719 65.7154 301.323 65.4528L299.728 61.7845C298.86 62.1619 298.072 62.6182 297.393 63.1704L299.915 66.2749ZM301.359 65.4368C302.036 65.1266 302.763 64.8551 303.542 64.6242L302.406 60.789C301.457 61.0701 300.552 61.4066 299.693 61.8005L301.359 65.4368ZM303.542 64.6242C304.306 64.3979 305.103 64.2266 305.935 64.1119L305.389 60.1494C304.365 60.2906 303.37 60.5033 302.406 60.789L303.542 64.6242ZM306.002 64.1015C306.819 63.9606 307.633 63.8906 308.446 63.8906V59.8906C307.402 59.8906 306.361 59.9806 305.322 60.1597L306.002 64.1015ZM308.446 63.8906C309.742 63.8906 310.518 64.1504 310.971 64.4576L313.217 61.1477C311.878 60.2388 310.221 59.8906 308.446 59.8906V63.8906ZM311.012 64.485C311.184 64.5954 311.438 64.8165 311.438 65.6826H315.438C315.438 63.8608 314.796 62.1619 313.175 61.1203L311.012 64.485ZM311.438 65.6826C311.438 65.9375 311.402 66.2007 311.323 66.4772L315.169 67.5761C315.346 66.9566 315.438 66.3238 315.438 65.6826H311.438ZM311.334 66.4385C311.242 66.7372 311.133 66.9961 311.01 67.2209L314.522 69.1363C314.783 68.6572 314.993 68.1481 315.157 67.6148L311.334 66.4385ZM312.766 66.1786C312.03 66.1786 311.282 66.2136 310.521 66.2828L310.883 70.2664C311.53 70.2076 312.157 70.1786 312.766 70.1786V66.1786ZM310.521 66.2828C309.754 66.3525 309.002 66.4574 308.264 66.5979L309.012 70.5273C309.618 70.4119 310.242 70.3247 310.883 70.2664L310.521 66.2828ZM308.264 66.5979C307.55 66.7338 306.865 66.8878 306.209 67.0605L307.227 70.9288C307.787 70.7815 308.381 70.6474 309.012 70.5273L308.264 66.5979ZM306.284 67.0422C305.606 67.1928 304.968 67.3927 304.392 67.6587L306.068 71.2905C306.324 71.1725 306.677 71.0524 307.152 70.947L306.284 67.0422ZM303.23 69.4746V85.8426H307.23V69.4746H303.23ZM341.546 79.5546L343.405 80.2907L343.41 80.2777L341.546 79.5546ZM338.954 83.4426L337.582 81.9874L337.571 81.9974L337.561 82.0075L338.954 83.4426ZM335.018 85.8426L334.35 83.9574L334.35 83.9574L335.018 85.8426ZM324.746 85.7946L324.043 87.6673L324.043 87.6673L324.746 85.7946ZM320.762 83.3466L319.347 84.7608L319.368 84.7816L319.39 84.8018L320.762 83.3466ZM318.218 79.4106L316.358 80.1467L316.358 80.1467L318.218 79.4106ZM318.218 69.0906L316.358 68.3545L316.358 68.3545L318.218 69.0906ZM320.762 65.2026L322.155 66.6378L322.155 66.6372L320.762 65.2026ZM324.746 62.7066L325.448 64.5793L325.448 64.5793L324.746 62.7066ZM335.018 62.7546L334.281 64.6142L334.298 64.6209L334.315 64.6273L335.018 62.7546ZM338.954 65.2506L337.539 66.6648L337.56 66.6856L337.582 66.7058L338.954 65.2506ZM341.546 69.1386L339.686 69.8747L339.686 69.8747L341.546 69.1386ZM326.762 78.7386L325.121 79.8822L325.141 79.9108L325.162 79.9386L326.762 78.7386ZM333.002 78.6906L331.361 77.547L331.349 77.564L331.337 77.5812L333.002 78.6906ZM333.002 69.8106L331.361 70.9542L331.369 70.9661L331.378 70.9779L333.002 69.8106ZM326.762 69.8106L328.386 70.9779L328.394 70.9661L328.402 70.9542L326.762 69.8106ZM340.458 74.2266C340.458 76.0069 340.185 77.5316 339.681 78.8316L343.41 80.2777C344.122 78.4417 344.458 76.4144 344.458 74.2266H340.458ZM339.686 78.8185C339.178 80.1023 338.473 81.147 337.582 81.9874L340.326 84.8978C341.674 83.6263 342.697 82.0789 343.405 80.2907L339.686 78.8185ZM337.561 82.0075C336.694 82.8483 335.635 83.5022 334.35 83.9574L335.685 87.7279C337.472 87.0951 339.037 86.1489 340.347 84.8778L337.561 82.0075ZM334.35 83.9574C333.059 84.4144 331.578 84.6586 329.882 84.6586V88.6586C331.962 88.6586 333.904 88.3588 335.685 87.7279L334.35 83.9574ZM329.882 84.6586C328.198 84.6586 326.728 84.4021 325.448 83.922L324.043 87.6673C325.835 88.3392 327.789 88.6586 329.882 88.6586V84.6586ZM325.448 83.922C324.144 83.433 323.048 82.7534 322.134 81.8914L319.39 84.8018C320.715 86.0518 322.275 87.0042 324.043 87.6673L325.448 83.922ZM322.176 81.9324C321.295 81.0516 320.592 79.9754 320.077 78.6745L316.358 80.1467C317.059 81.9179 318.052 83.4657 319.347 84.7608L322.176 81.9324ZM320.077 78.6745C319.576 77.4076 319.306 75.9349 319.306 74.2266H315.306C315.306 76.3583 315.643 78.3416 316.358 80.1467L320.077 78.6745ZM319.306 74.2266C319.306 72.555 319.574 71.0974 320.077 69.8267L316.358 68.3545C315.645 70.1559 315.306 72.1223 315.306 74.2266H319.306ZM320.077 69.8267C320.59 68.5303 321.287 67.4793 322.155 66.6378L319.369 63.7675C318.06 65.0379 317.061 66.5789 316.358 68.3545L320.077 69.8267ZM322.155 66.6372C323.067 65.751 324.157 65.0635 325.448 64.5793L324.043 60.834C322.262 61.5018 320.696 62.4783 319.368 63.7681L322.155 66.6372ZM325.448 64.5793C326.728 64.0992 328.198 63.8426 329.882 63.8426V59.8426C327.789 59.8426 325.835 60.1621 324.043 60.834L325.448 64.5793ZM329.882 63.8426C331.553 63.8426 333.011 64.1113 334.281 64.6142L335.754 60.895C333.952 60.182 331.986 59.8426 329.882 59.8426V63.8426ZM334.315 64.6273C335.602 65.1098 336.666 65.7919 337.539 66.6648L340.368 63.8364C339.065 62.5334 337.505 61.5515 335.72 60.882L334.315 64.6273ZM337.582 66.7058C338.473 67.5463 339.178 68.5909 339.686 69.8747L343.405 68.4025C342.697 66.6143 341.674 65.067 340.326 63.7954L337.582 66.7058ZM339.686 69.8747C340.19 71.1492 340.458 72.5917 340.458 74.2266H344.458C344.458 72.1496 344.117 70.2 343.405 68.4025L339.686 69.8747ZM323.658 74.2266C323.658 76.3893 324.059 78.3583 325.121 79.8822L328.402 77.595C327.992 77.0069 327.658 75.9679 327.658 74.2266H323.658ZM325.162 79.9386C326.329 81.495 327.993 82.2746 329.93 82.2746V78.2746C329.178 78.2746 328.73 78.0303 328.362 77.5386L325.162 79.9386ZM329.93 82.2746C331.895 82.2746 333.565 81.4504 334.666 79.8L331.337 77.5812C331.03 78.0428 330.652 78.2746 329.93 78.2746V82.2746ZM334.642 79.8342C335.701 78.3148 336.106 76.3656 336.106 74.2266H332.106C332.106 75.9276 331.774 76.9544 331.361 77.547L334.642 79.8342ZM336.106 74.2266C336.106 72.0936 335.704 70.1433 334.626 68.6434L331.378 70.9779C331.771 71.526 332.106 72.5197 332.106 74.2266H336.106ZM334.642 68.667C333.513 67.0469 331.845 66.2266 329.882 66.2266V70.2266C330.606 70.2266 331.018 70.4623 331.361 70.9542L334.642 68.667ZM329.882 66.2266C327.918 66.2266 326.25 67.0469 325.121 68.667L328.402 70.9542C328.745 70.4623 329.157 70.2266 329.882 70.2266V66.2266ZM325.138 68.6434C324.059 70.1433 323.658 72.0936 323.658 74.2266H327.658C327.658 72.5197 327.992 71.526 328.386 70.9779L325.138 68.6434Z" fill="black" mask="url(#path-1-outside-1_619_494)"/>
<path d="M34.7284 99.5095C31.2886 97.7136 28.5246 95.2148 26.7349 92.2832L26.3626 91.6738C23.251 86.5765 23.2614 80.5742 26.3909 75.2061L57.5354 21.7833C60.6247 16.4843 66.4262 12.391 73.4526 10.5533C80.8158 8.62782 88.5885 9.37647 94.7781 12.6081C97.738 14.1535 100.142 16.1651 101.925 18.5874L113.437 34.2345C118.636 41.2997 117.313 50.4222 110.146 56.9342L67.8886 95.3331C62.4736 100.254 54.4538 102.959 46.4353 102.568C42.2162 102.363 38.1682 101.305 34.7284 99.5095ZM85.8312 22.6487C83.4221 21.3909 80.3979 21.0991 77.5336 21.8482C74.8008 22.5628 72.5445 24.1549 71.3429 26.2158L40.1985 79.6386C38.9813 81.7263 38.9774 84.0607 40.1875 86.0433L40.5594 86.6525C41.2565 87.7948 42.3337 88.7689 43.6748 89.4691C45.0156 90.1692 46.5939 90.5814 48.2381 90.6614C51.3563 90.8131 54.4754 89.7613 56.5812 87.8474L98.8392 49.4482C101.627 46.9155 102.141 43.3676 100.119 40.6199L88.6062 24.9729C87.9132 24.03 86.9791 23.248 85.8312 22.6487Z" fill="#FFCB44"/>
<path d="M68.9798 15.5746C76.3426 13.6492 84.1153 14.3978 90.3049 17.6294C93.2648 19.1749 95.6691 21.1865 97.4514 23.6088L108.964 39.2558C113.104 44.883 113.103 51.814 109.313 57.6931L110.147 56.9355C117.314 50.4231 118.636 41.3009 113.438 34.2357L101.925 18.5887C100.143 16.1663 97.7383 14.1545 94.7785 12.6092C88.589 9.37764 80.8164 8.62882 73.4534 10.5544C66.723 12.3147 61.1183 16.1449 57.9426 21.1217C60.9608 18.6076 64.7475 16.6814 68.9798 15.5746Z" fill="#FFCB44"/>
<path d="M84.6664 62.3286L61.6942 83.2032C58.871 85.7684 59.1141 89.5235 62.2363 91.5909C65.3586 93.658 70.1779 93.2543 73.0008 90.6892L95.9838 69.805L84.6664 62.3286Z" fill="#FFCB44"/>
<path opacity="0.1" d="M74.9685 71.1392L86.4074 78.5052L95.9827 69.8041L84.6658 62.3275L74.9685 71.1392Z" fill="black"/>
<path d="M92.5635 75.8567L112.204 58.0093L96.7841 48.3756L77.3339 66.0496L92.5635 75.8567Z" fill="#FFCB44"/>
<path d="M65.9624 88.5485C67.2431 89.2172 69.034 88.9145 69.9625 87.8725C70.891 86.8306 70.6054 85.4438 69.3247 84.7752C68.0441 84.1065 66.2532 84.4091 65.3247 85.4511C64.3962 86.4931 64.6818 87.8799 65.9624 88.5485Z" fill="black"/>
<path d="M115.102 33.4362L103.589 17.7891C101.671 15.1819 99.0829 13.0164 95.897 11.353C89.235 7.87472 80.8688 7.06869 72.9433 9.1414C65.38 11.1193 59.1352 15.5253 55.8101 21.2292L24.6654 74.6519C23.6543 76.3862 22.9351 78.2064 22.527 80.0617C22.3987 80.6465 22.7166 81.1908 23.2871 81.4887C23.515 81.6077 23.7831 81.6872 24.0789 81.714C25.1157 81.8086 26.1021 81.2219 26.282 80.4037C26.632 78.8113 27.2496 77.2488 28.1175 75.76L59.2622 22.3372C62.1154 17.4428 67.474 13.6622 73.9637 11.9651C80.7645 10.1866 87.9436 10.8784 93.6603 13.8632C96.3935 15.2902 98.6142 17.1481 100.26 19.3857L111.773 35.0327C116.226 41.086 115.486 48.8123 110.043 54.6984L108.973 54.0303L101.328 49.2541C103.692 46.3571 103.916 42.718 101.785 39.822L98.2211 34.9785C97.7095 34.283 96.549 34.0762 95.6294 34.517C94.7098 34.9578 94.3794 35.8791 94.8916 36.5749L98.4553 41.4184C99.8066 43.2551 99.7434 45.5355 98.3962 47.4222L98.0226 47.1888C97.2386 46.6987 96.0623 46.8097 95.3697 47.4388C95.3697 47.4388 75.9241 65.109 75.9201 65.1128C75.216 65.7526 75.2872 66.7149 76.074 67.2217L76.5209 67.5096C76.5209 67.5096 60.2802 82.2673 60.2763 82.2707L55.169 86.9117C53.4767 88.4496 50.9703 89.2951 48.4645 89.1728C47.1414 89.1085 45.8725 88.7768 44.7941 88.2138C41.6638 86.5794 40.2475 83.0303 41.925 80.1925L73.0697 26.7698C74.0354 25.1135 75.8484 23.8344 78.0444 23.2601C80.3457 22.6579 82.7765 22.8928 84.7131 23.9038C85.6344 24.3849 86.3844 25.0132 86.9422 25.7711L90.9727 31.2493C91.4844 31.9454 92.6448 32.1519 93.5643 31.7108C94.484 31.27 94.8143 30.3487 94.3022 29.6529L90.2717 24.1747C89.4416 23.0469 88.3238 22.111 86.9496 21.3936C84.0678 19.889 80.4501 19.5402 77.0235 20.4363C73.754 21.2913 71.0542 23.1958 69.6171 25.6616C69.6171 25.6616 38.48 79.0716 38.4725 79.0843C36.299 82.8125 37.6783 87.4116 41.3497 89.9908C41.7287 90.257 42.1324 90.5023 42.5569 90.7239C44.16 91.5609 46.0468 92.054 48.0134 92.1496C51.7441 92.3314 55.4759 91.0728 57.9986 88.7801C57.9995 88.7834 58.0007 88.7869 58.0014 88.7904C58.0063 88.8099 58.0125 88.8293 58.0178 88.8489C58.0405 88.9358 58.065 89.0222 58.0919 89.1084C58.5095 90.4448 59.4288 91.6583 60.7036 92.5753C61.1051 92.8642 61.5416 93.1174 62.0037 93.3451C63.3288 93.9902 64.8752 94.3578 66.4709 94.4019C61.4697 98.944 54.0648 101.441 46.6613 101.08C42.7642 100.891 39.0246 99.9133 35.8473 98.2544C30.6705 95.5516 27.0678 90.8866 26.172 85.9906C26.0241 85.1832 25.0598 84.6595 24.0178 84.8214C22.976 84.9831 22.251 85.7688 22.3991 86.5766C23.4376 92.2532 27.6125 97.6327 33.6109 100.765C37.313 102.697 41.6699 103.836 46.2109 104.057C54.8416 104.477 63.4743 101.565 69.3026 96.269L74.4059 91.6316C74.4083 91.6293 74.4109 91.6271 74.414 91.6242L90.8193 76.7169L91.3034 77.0287C91.3497 77.0586 91.3972 77.0861 91.4462 77.1116C92.2249 77.5182 93.3182 77.3893 93.976 76.7914L102.018 69.4837C102.724 68.8424 102.663 67.9036 101.883 67.3867C101.102 66.8681 99.8971 66.9709 99.1913 67.6119L92.4107 73.7731L80.0408 65.8075L96.9522 50.4401C96.9522 50.4401 97.4619 50.7583 97.4625 50.7589C97.4625 50.7589 109.042 57.9928 109.042 57.9931L109.477 58.2646L104.332 62.94C103.626 63.5813 103.687 64.5199 104.468 65.0369C105.247 65.5529 106.453 65.4526 107.159 64.8114C107.159 64.8114 113.603 58.9554 113.616 58.9435C114.64 58.0131 113.891 57.1024 112.939 56.5076C119.414 49.6298 120.331 40.544 115.102 33.4362ZM79.3804 69.351L87.9593 74.8755L71.5869 89.753C70.0438 91.1553 67.5779 91.7263 65.4174 91.2275C64.8111 91.0874 64.2395 90.8668 63.7409 90.5713C62.6678 89.9355 61.941 88.9914 61.7135 87.9341C61.4297 86.6161 61.9495 85.1905 63.1072 84.1379L79.3804 69.351Z" fill="black"/>
</svg>
