<svg width="210" height="107" viewBox="0 0 210 107" fill="none" xmlns="http://www.w3.org/2000/svg">
<path fill-rule="evenodd" clip-rule="evenodd" d="M46.291 0.50018H151.622C164.348 0.501082 175.921 5.69823 184.311 14.0688C192.7 22.4401 197.906 33.9853 197.909 46.6832V46.694C197.908 59.3922 192.7 70.9408 184.309 79.3128C175.92 87.6823 164.351 92.8778 151.625 92.8803H46.2877C33.5601 92.8785 21.9877 87.6823 13.5984 79.3103C5.20982 70.9401 0.00216519 59.3938 0 46.697V46.6871C0.000902163 33.9865 5.20982 22.4377 13.6014 14.0668C21.9888 5.69805 33.5583 0.502163 46.2836 0.5L46.291 0.50018ZM151.617 1.80235H46.2838C33.914 1.80415 22.6698 6.85285 14.5179 14.9865C6.36567 23.1209 1.30354 34.3431 1.30354 46.6873V46.6972C1.30534 59.0379 6.36567 70.2575 14.5149 78.3901C22.6671 86.5271 33.9155 91.578 46.2879 91.578H151.625C163.995 91.576 175.241 86.5271 183.392 78.3927C191.545 70.259 196.606 59.0372 196.606 46.6942V46.6834C196.605 34.3415 191.545 23.1226 183.395 14.9893C175.242 6.85411 163.992 1.80253 151.622 1.80253L151.617 1.80235Z" fill="#000200"/>
<path fill-rule="evenodd" clip-rule="evenodd" d="M12.8343 95.588L12.4254 20.0574L15.2003 17.9396H41.1134C46.8785 17.9432 50.8876 22.3857 53.8696 26.6268L54.8434 28.0119V19.6873L57.182 17.5206H80.8901C82.3991 20.0196 83.3187 23.3282 83.5692 26.3881C85.2659 22.907 87.3138 19.4593 90.1331 17.1009H121.991L124.267 19.5663L124.58 26.7542C126.046 23.3793 127.866 20.2157 130.462 17.5206H154.827C156.721 18.6797 157.84 20.3019 158.608 22.137C159.012 20.3589 159.628 18.6537 160.71 17.1009H173.732L173.824 62.43L210 62.3836L209.02 66.6259L201.458 76.7013L161.595 76.5595L158.188 74.7619V67.8867L152.726 76.7013H119.119L117.017 74.1805V67.4645L138.024 31.7912L111.558 32.2105L111.137 73.3413L109.503 76.5126L97.4605 76.3272L96.2479 73.5299L96.4335 32.2105H71.6483V40.8371H92.0458L92.2326 43.9618L85.7452 55.2935H71.2275L70.9948 62.0562H93.0733V66.2074L85.2781 76.6543L58.858 76.4656L55.6837 73.3413V51.5183L53.7155 53.3196C42.9932 63.5383 36.5639 63.4513 29.9306 54.6059L28.7988 53.6146V106.5L23.7563 106.078L12.8343 95.588ZM28.0257 32.0988L28.1528 46.4019L34.9965 46.3741C46.1929 45.4058 42.5397 31.1485 36.4995 32.0988H28.0257ZM158.218 62.514V27.9739L139.22 59.1939V62.4089L158.218 62.514Z" fill="#000200"/>
<path fill-rule="evenodd" clip-rule="evenodd" d="M183.564 40.5781C184.906 40.5789 186.125 41.1273 187.008 42.0095C187.888 42.8902 188.435 44.1054 188.437 45.4421V45.4538C188.437 46.7934 187.888 48.0123 187.004 48.8938C186.122 49.7727 184.906 50.3192 183.568 50.321H183.556C182.217 50.3202 180.998 49.7715 180.115 48.889C179.234 48.0097 178.689 46.7948 178.685 45.4582V45.4465C178.687 44.1057 179.235 42.8883 180.118 42.0062C180.999 41.1265 182.217 40.5803 183.552 40.5781H183.564ZM183.564 41.3223H183.553C182.42 41.3243 181.388 41.787 180.642 42.5315C179.896 43.2772 179.432 44.3101 179.431 45.4465V45.4582C179.433 46.5916 179.896 47.6215 180.641 48.3665C181.388 49.1128 182.421 49.5769 183.557 49.5769H183.568C184.704 49.5761 185.734 49.1121 186.481 48.3672C187.227 47.6215 187.693 46.5895 187.693 45.4538V45.4421C187.691 44.3075 187.227 43.278 186.483 42.5334C185.734 41.7863 184.701 41.323 183.564 41.3223Z" fill="#000200"/>
<path fill-rule="evenodd" clip-rule="evenodd" d="M183.884 43.4127H182.172V45.1693H183.948C184.488 45.1693 184.864 45.1001 185.079 44.9691C185.291 44.8351 185.398 44.6094 185.398 44.2897C185.398 43.9637 185.294 43.7357 185.082 43.6077C184.871 43.4767 184.471 43.4127 183.884 43.4127ZM181.42 48.1367V42.7628H184.247C184.871 42.7628 185.346 42.8876 185.67 43.137C185.995 43.386 186.158 43.7505 186.158 44.2309C186.158 44.5757 186.08 44.8551 185.928 45.0746C185.773 45.2918 185.543 45.4495 185.235 45.5464C185.506 45.5882 185.704 45.687 185.833 45.845C185.961 46.0026 186.034 46.2432 186.06 46.567L186.125 47.4355C186.141 47.6369 186.165 47.7841 186.195 47.8789C186.224 47.9728 186.265 48.0605 186.322 48.1367H185.435C185.407 48.0761 185.387 48.0039 185.373 47.9184C185.358 47.8344 185.346 47.7208 185.337 47.5773L185.268 46.7813C185.238 46.4112 185.148 46.1599 184.997 46.0271C184.844 45.895 184.574 45.8298 184.189 45.8298H182.172V48.1367H181.42Z" fill="#000200"/>
</svg>
